<?xml version="1.0" encoding="UTF-8"?>
<svg width="1200pt" height="1200pt" version="1.1" viewBox="0 0 1200 1200" xmlns="http://www.w3.org/2000/svg">
 <path d="m1200 600c0 214.36-114.36 412.44-300 519.62-185.64 107.18-414.36 107.18-600 0-185.64-107.18-300-305.26-300-519.62s114.36-412.44 300-519.62c185.64-107.18 414.36-107.18 600 0 185.64 107.18 300 305.26 300 519.62z" fill="#a8aaad"/>
 <path d="m749.96 428.93c-11.719-7.9688-25.625-12.074-39.793-11.777-34.863 0-52.516 16.621-70.348 49.859h0.03125c-1.3867 2.5391-4.0742 4.1328-6.9648 4.1328-2.8945-0.03125-5.5508-1.6523-6.9062-4.2227-6.8477-14.582-16.797-27.484-29.137-37.844-11.984-8.4727-26.48-12.664-41.152-11.926-14.168-0.29688-28.043 3.8086-39.762 11.777-12.016 8.6797-21.285 20.664-26.688 34.48-7.6172 17.27-9.0039 36.633-3.8984 54.789 5.9336 18.273 15.172 35.305 27.305 50.215 25.594 33.949 62.762 66.922 95.203 95.734 8.8867 7.8828 17.445 15.469 25.062 22.465 7.6172-6.9648 16.176-14.555 25.062-22.465 32.441-28.812 69.637-61.785 95.203-95.734h0.03125c12.133-14.906 21.402-31.941 27.305-50.215 5.1055-18.156 3.7188-37.52-3.8984-54.789-5.4023-13.816-14.672-25.801-26.656-34.48zm-15.734 125.11h-32.234c-3.1875 0-6.082-1.9492-7.293-4.8984l-16.059-39.676-45.168 111.5c-1.1797 2.9531-4.0742 4.8984-7.2617 4.8984-3.2188 0-6.082-1.9492-7.293-4.8984l-38.434-94.879-9.1797 22.672c-1.0938 3.1602-4.0742 5.2852-7.4375 5.2852h-32.234c-4.3398 0-7.8242-3.5117-7.8242-7.8516s3.4844-7.8516 7.8242-7.8828h26.953l14.641-36.102c1.1797-2.9531 4.0742-4.8984 7.2617-4.8984s6.082 1.9492 7.293 4.8984l38.434 94.879 45.168-111.5c1.1797-2.9531 4.0742-4.8984 7.2617-4.8984 3.2188 0 6.082 1.9492 7.293 4.8984l21.344 52.723h26.953c2.0977 0 4.1016 0.82812 5.5781 2.3008 1.4766 1.4766 2.3008 3.4844 2.3008 5.5781 0 2.0977-0.82813 4.0742-2.3008 5.5508-1.4766 1.4766-3.4844 2.3008-5.5781 2.3008zm75.039-203.33h0.03125c-46.641-46.613-109.81-72.887-175.73-73.062-65.949-0.14844-129.27 25.77-176.12 72.176-46.848 46.375-73.445 109.43-73.949 175.35l-62.582 121.04c-5.2266 9.7695-4.0742 21.699 2.8945 30.289 6.9961 8.8281 17.742 13.844 28.988 13.578h27.453c-1.5039 3.4258-3.2188 6.7617-5.1641 9.9492-2.4219 4.7227-3.7188 9.9492-3.7188 15.262-0.14844 9.0039 4.3984 17.445 12.016 22.258-3.7188 5.0469-5.5508 11.188-5.2266 17.418 0.73828 9.1211 5.1055 17.562 12.133 23.41 0.85547 14.348 5.7578 28.133 14.051 39.852 9.5039 11.66 24.5 18.805 49.328 18.805h22.082c10.922 0.03125 19.809 8.8867 19.836 19.836v57.625c0 4.3672 3.5117 7.8828 7.8516 7.8828h258.98c4.3398 0 7.8516-3.5117 7.8516-7.8828v-123.75c-0.53125-31.824 12.457-62.375 35.719-84.102 48.207-46.434 75.723-110.32 76.344-177.27 0.62109-66.949-25.711-131.34-73.031-178.66zm-13.637 171.69c-6.4062 20.191-16.562 38.996-29.875 55.469-26.422 35.039-64.293 68.664-97.359 98.008-10.566 9.3867-20.637 18.301-30.109 27.129-3.0117 2.8047-7.6758 2.8047-10.688 0-9.4766-8.8281-19.543-17.77-30.109-27.129-33.062-29.344-70.938-62.965-97.359-98.008h-0.03125c-13.312-16.473-23.438-35.277-29.875-55.469-6.082-21.551-4.4883-44.516 4.5156-65.004 6.5547-16.59 17.77-30.969 32.266-41.359 14.316-9.8008 31.32-14.906 48.68-14.613 18.066-0.79688 35.867 4.5156 50.566 15.086 10.773 8.5 19.836 19.039 26.656 30.969 18.773-30.699 39.559-46.051 77.258-46.051 17.359-0.29688 34.363 4.8125 48.68 14.613 14.496 10.391 25.711 24.766 32.266 41.359 9.0039 20.488 10.598 43.453 4.5156 65.004z"/>
</svg>
