<?xml version="1.0" encoding="UTF-8"?>
<svg width="1200pt" height="1200pt" version="1.1" viewBox="0 0 1200 1200" xmlns="http://www.w3.org/2000/svg">
 <path d="m1200 600c0 214.36-114.36 412.44-300 519.62-185.64 107.18-414.36 107.18-600 0-185.64-107.18-300-305.26-300-519.62s114.36-412.44 300-519.62c185.64-107.18 414.36-107.18 600 0 185.64 107.18 300 305.26 300 519.62z" fill="#a8aaad"/>
 <path d="m385.95 381.88v39.852c0 22.848-5.7852 39.172-14.438 52.25-17.121 25.832-45.488 39.23-63.086 66.035-8.2344 12.574-14.141 28.102-15.352 49.238h394.95c-1.2383-21.137-7.1133-36.664-15.352-49.238-17.594-26.805-45.992-40.207-63.086-66.035-8.6797-13.105-14.438-29.402-14.438-52.25l-0.03125-39.852zm350.85 441.09c4.2227-43.336 40.738-77.227 85.191-77.227 44.453 0 80.977 33.891 85.191 77.227zm170.39 16.738c-4.2227 43.336-40.738 77.227-85.191 77.227s-80.977-33.859-85.191-77.227zm-57.27-113.21c25.328-25.328 25.328-66.773 0-92.105-25.328-25.328-66.773-25.328-92.105 0l-63.617 63.617 58.242 58.242c18.273-16.914 42.715-27.277 69.578-27.277 7.8516 0 15.527 0.88672 22.879 2.5664zm-127.73 127.7c-1.6836-7.3516-2.5664-14.996-2.5664-22.879 0-23.617 8-45.371 21.461-62.699l-58.746-58.746-63.617 63.617c-25.328 25.328-25.328 66.773 0 92.105 25.328 25.328 66.773 25.328 92.105 0zm-199.64-59.512c0 4.6641-3.8086 8.4414-8.4414 8.4414h-47.086c-4.6641 0-8.4414-3.8086-8.4414-8.4414v-35.012h-35.012c-4.6641 0-8.4414-3.8086-8.4414-8.4414v-47.086c0-4.6641 3.8086-8.4414 8.4414-8.4414h35.012v-35.012c0-4.6641 3.8086-8.4414 8.4414-8.4414h47.086c4.6641 0 8.4414 3.8086 8.4414 8.4414v35.012h35.012c4.6641 0 8.4414 3.8086 8.4414 8.4414v47.086c0 4.6641-3.8086 8.4414-8.4414 8.4414h-35.012zm-146.16-529.86h228.28c13.02 0 23.645 10.625 23.645 23.645v52.988c0 13.02-10.625 23.645-23.645 23.645l-228.28 0.03125c-13.02 0-23.645-10.625-23.645-23.645v-53.02c0-13.02 10.625-23.645 23.645-23.645zm65.418 511.61v18.242c0 13.902 11.305 25.211 25.211 25.211h47.086c13.902 0 25.211-11.305 25.211-25.211v-18.242h18.242c13.902 0 25.211-11.305 25.211-25.211v-47.086c0-13.902-11.305-25.211-25.211-25.211h-18.242v-18.242c0-13.902-11.305-25.211-25.211-25.211h-47.086c-13.902 0-25.211 11.305-25.211 25.211v18.242h-18.242c-13.902 0-25.211 11.305-25.211 25.211v47.086c0 13.902 11.305 25.211 25.211 25.211zm-148.99-170.39h395.42v74.184l-81.391 81.391c-23.617 23.617-29.727 58.332-18.332 87.68l-295.7 0.03125zm0 260.04h304.56c2.7461 4.0156 5.9023 7.793 9.4766 11.363 21.961 21.961 53.488 28.781 81.391 20.488v15.91c0 11.719-9.5625 21.312-21.312 21.312h-352.8c-11.75 0-21.312-9.5625-21.312-21.312z" fill-rule="evenodd"/>
</svg>
