<?xml version="1.0" encoding="UTF-8"?>
<svg width="1200pt" height="1200pt" version="1.1" viewBox="0 0 1200 1200" xmlns="http://www.w3.org/2000/svg">
 <path d="m1200 600c0 214.36-114.36 412.44-300 519.62-185.64 107.18-414.36 107.18-600 0-185.64-107.18-300-305.26-300-519.62s114.36-412.44 300-519.62c185.64-107.18 414.36-107.18 600 0 185.64 107.18 300 305.26 300 519.62z" fill="#a8aaad"/>
 <path d="m818.55 553.79-91.684-71.59c-6.1523-4.6172-26.609-17.109-44.164-17.109h-159.65c-21.086 0-44.164 17.109-44.438 17.289l-91.5 71.41c-4.75 5.0273-6.7461 12.055-5.3438 18.824 0.76562 4.4766 2.8984 8.6055 6.1094 11.812 3.2109 3.2109 7.3398 5.3438 11.816 6.1055 6.0547 1.1055 12.297-0.42969 17.148-4.2148 8.7148-6.9844 18.191-12.945 27.418-19.219l23.297-15.832c3.2031-2.1758 6.3945-4.3672 9.6055-6.5312 3.9453-2.6719 8.5312-4.2461 13.285-4.5664 4.7578-0.31641 9.5117 0.63672 13.777 2.7617 4.2734 2.0977 7.9023 5.3047 10.516 9.2852 2.6094 3.9805 4.1055 8.5859 4.3281 13.34l3.6211 66.879 160.38 0.003906 3.5273-66.879v-0.003906c0.35547-6.3555 2.9531-12.375 7.3281-17 4.3789-4.6211 10.254-7.5391 16.578-8.2383 6.3281-0.69922 12.695 0.86719 17.977 4.418l25.293 17.191c8.6836 5.9023 17.457 11.676 26.012 17.758 8.2461 5.8555 15.242 12.734 26.164 10.844v0.003906c4.4805-0.77344 8.6133-2.9102 11.836-6.1133 3.2227-3.207 5.3789-7.3281 6.1797-11.805 1.4805-6.7852-0.55078-13.859-5.4102-18.824zm-115.9 154.33c-0.54297-0.94141-1.1484-1.8477-1.8086-2.7109l-52.305 45.176h0.003906c4.6289 7.2891 7.582 15.52 8.6367 24.09 2.1094 15.664 8.4258 88.547 8.7266 91.66v1.5117c0.039062 8.7266 4.6836 16.781 12.211 21.18 7.5312 4.4023 16.828 4.4961 24.449 0.25 7.6172-4.25 12.422-12.207 12.637-20.93l-9.8242-144.16c-0.33594-5.4375-1.25-10.824-2.7266-16.066zm-20.852-27.801c4.0664-4.75 6.1719-10.867 5.8867-17.109h-169.61c-0.41016 6.4258 1.8906 12.727 6.3398 17.379 0.4375 0.30859 0.85938 0.64062 1.2617 0.99219l59.648 51.594v-0.003906c3.2773 2.8125 7.4531 4.3555 11.77 4.3477h11.496-0.003906c4.3164 0.007813 8.4883-1.5352 11.762-4.3477l59.648-51.555c0.5625-0.48438 1.1641-0.91797 1.8047-1.2969zm-79.176-235.35c17.137 0 33.57-6.8086 45.688-18.926 12.117-12.117 18.926-28.555 18.926-45.691 0-17.137-6.8086-33.57-18.926-45.688-12.117-12.117-28.551-18.926-45.688-18.926-17.137 0-33.57 6.8086-45.688 18.926-12.121 12.117-18.926 28.551-18.926 45.688 0.023438 17.129 6.8398 33.551 18.953 45.66 12.109 12.113 28.531 18.93 45.66 18.957zm-99.512 263.15c-1.5156 5.2383-2.457 10.621-2.8125 16.059l-9.7422 144.16c0.21484 8.7031 5.0078 16.645 12.613 20.883 7.6016 4.2422 16.879 4.1445 24.391-0.24609 7.5156-4.3945 12.148-12.43 12.188-21.133-0.019532-0.50781 0.015624-1.0156 0.10547-1.5117 0.19531-3.1133 6.6289-75.996 8.7266-91.66v-0.003906c1.0742-8.5508 3.9844-16.77 8.5391-24.09l-52.203-45.176c-0.66016 0.86328-1.2656 1.7734-1.8047 2.7188z"/>
</svg>
