<?xml version="1.0" encoding="UTF-8"?>
<svg width="1200pt" height="1200pt" version="1.1" viewBox="0 0 1200 1200" xmlns="http://www.w3.org/2000/svg">
 <path d="m1200 600c0 214.36-114.36 412.44-300 519.62-185.64 107.18-414.36 107.18-600 0-185.64-107.18-300-305.26-300-519.62s114.36-412.44 300-519.62c185.64-107.18 414.36-107.18 600 0 185.64 107.18 300 305.26 300 519.62z" fill="#a8aaad"/>
 <path d="m777.04 461.67 136.68 78.902 13.875-24.031-150.55-86.906zm-30.23-47.5-140.9 60.426c-3.9258 1.6836-8.1758 1.5352-11.809 0l-140.9-60.398v47.703c0 24.148 36.457 40.621 83.098 48.648 19.957 3.4258 41.77 5.1641 63.703 5.1641 21.934 0 43.75-1.7109 63.703-5.1641 46.641-8.0312 83.129-24.5 83.129-48.648v-47.703zm-323.86 15.527-150.52 86.906 13.844 23.969 136.68-78.934zm332.07-51.867c0.62109-0.32422 1.2383-0.58984 1.918-0.82812l44.695-19.16-201.62-86.461-201.62 86.461 44.695 19.16c0.64844 0.23438 1.3008 0.5 1.8906 0.82812l11.395 4.8711 143.62 61.578 155.01-66.48zm28.309 20.695 172.31 99.48c7.2031 4.1328 9.6836 13.344 5.5508 20.547l-28.93 50.094c-4.1328 7.2031-13.344 9.6836-20.547 5.5508l-30.879-17.832v32.293c0 8.3555-6.7617 15.113-15.113 15.113h-57.445v268.31h57.445c8.3555 0 15.113 6.7617 15.113 15.113v57.828c0 8.3555-6.7617 15.113-15.113 15.113h-531.45c-8.3555 0-15.113-6.7617-15.113-15.113v-57.828c0-8.3555 6.7617-15.113 15.113-15.113h57.445v-268.31h-57.445c-8.3555 0-15.113-6.7617-15.113-15.113v-32.234l-30.82 17.801c-7.2031 4.1641-16.441 1.7109-20.605-5.4922l-28.93-50.156c-4.1328-7.1719-1.6523-16.383 5.5195-20.516l172.34-99.543-62.465-26.773c-7.6445-3.2461-11.219-12.133-7.9688-19.777 1.5938-3.7188 4.5156-6.4961 7.9688-7.9688l239.88-102.88c3.9258-1.6836 8.1758-1.5352 11.809 0l239.88 102.88c7.6445 3.2461 11.219 12.133 7.9688 19.777-1.5938 3.7188-4.5156 6.4961-7.9688 7.9688l-62.492 26.805zm-361.35 473.56h27.926v-268.31h-27.926zm356.07-268.31h-27.926v268.31h27.926zm-162.93 118.79v149.55h27.602v-149.55zm-30.23 149.55v-149.55h-27.602v149.55zm265.74 30.23h-501.19v27.602h501.22v-27.602zm0-356.39h-501.22v27.602h501.19v-27.602z"/>
</svg>
