<?xml version="1.0" encoding="UTF-8"?>
<svg width="1200pt" height="1200pt" version="1.1" viewBox="0 0 1200 1200" xmlns="http://www.w3.org/2000/svg">
 <path class="bg-circle" d="m1200 600c0 214.36-114.36 412.44-300 519.62-185.64 107.18-414.36 107.18-600 0-185.64-107.18-300-305.26-300-519.62s114.36-412.44 300-519.62c185.64-107.18 414.36-107.18 600 0 185.64 107.18 300 305.26 300 519.62z" fill="#a8aaad"/>
 <path class="icon" d="m782.49 501.99-18.363 18.363v-47.086h5.3711c7.1719 0 12.988 5.9023 12.988 13.078zm-18.363 232.44c0 13.992-5.9648 26.688-16.855 35.602-10.805 8.9141-24.414 12.309-38.168 9.6836-64.824-12.695-129.54-11.926-193.77 4.1641-7.4688 1.8906-14.879 1.8906-22.438 0-64.324-16.09-128.92-16.914-193.77-4.1641-13.668 2.7148-27.363-0.76562-38.168-9.6836-10.805-8.9141-16.77-21.609-16.77-35.602l0.03125-261.17h-5.2266c-7.1719 0-13.078 5.9023-13.078 13.078v307.04c0 7.1719 5.9023 12.988 13.078 12.988h530.5c7.1719 0 12.988-5.8164 12.988-12.988v-125.08l-18.363 18.363zm-495.73 0v-289.74c0-10.508 7.1133-19.277 17.387-21.461 68.781-14.73 137.62-15.203 206.38 0.97266v334.5c-65.828-15.41-131.72-15.703-197.55-2.8047-6.6406 1.3594-12.93-0.29688-18.215-4.6055-5.2266-4.2227-8-10.035-8-16.855zm43.363-267.36c0.91406 6.582 6.9648 11.188 13.52 10.273 20.488-2.8047 40.797-4.2227 61.047-4.3672 20.34-0.089843 40.648 1.2109 61.047 4.0156 6.582 0.91406 12.637-3.6914 13.52-10.273 0.91406-6.582-3.6914-12.695-10.273-13.52-21.371-2.8633-42.773-4.2227-64.234-4.1641-21.461 0.089844-42.922 1.5938-64.234 4.5469-6.6133 0.85547-11.305 6.9062-10.391 13.492zm0 58.125c0.91406 6.582 6.9648 11.246 13.52 10.273 20.488-2.8047 40.797-4.2227 61.047-4.3086 20.34-0.089844 40.648 1.2109 61.047 4.0156 6.582 0.91406 12.637-3.6914 13.52-10.273 0.91406-6.582-3.6914-12.637-10.273-13.52-21.371-2.8633-42.773-4.2227-64.234-4.1641-21.461 0.089844-42.922 1.5938-64.234 4.5469-6.6133 0.79688-11.305 6.8477-10.391 13.43zm0 58.184c0.91406 6.582 6.9648 11.188 13.52 10.273 20.488-2.8047 40.797-4.2227 61.047-4.3672 20.34-0.089844 40.648 1.2109 61.047 4.0156 6.582 0.91406 12.637-3.7773 13.52-10.363 0.91406-6.582-3.6914-12.637-10.273-13.52-21.371-2.8633-42.773-4.2227-64.234-4.1641-21.461 0.089844-42.922 1.5938-64.234 4.5469-6.6133 0.88672-11.305 6.9961-10.391 13.578zm0 58.094c0.91406 6.582 6.9648 11.188 13.52 10.273 20.488-2.8047 40.797-4.2227 61.047-4.3086 20.34-0.089844 40.648 1.2109 61.047 4.0156 6.582 0.91406 12.637-3.6914 13.52-10.273 0.91406-6.582-3.6914-12.637-10.273-13.52-21.371-2.8633-42.773-4.2227-64.234-4.1641-21.461 0.089844-42.922 1.5938-64.234 4.5469-6.6133 0.82812-11.305 6.8789-10.391 13.43zm0 58.125c0.91406 6.582 6.9648 11.246 13.52 10.363 20.488-2.8047 40.797-4.2227 61.047-4.3672 20.34-0.089844 40.648 1.2109 61.047 4.0156 6.582 0.91406 12.637-3.6914 13.52-10.273 0.91406-6.582-3.6914-12.637-10.273-13.52-21.371-2.8633-42.773-4.2227-64.234-4.1641-21.461 0.089844-42.922 1.5938-64.234 4.5469-6.6133 0.79688-11.305 6.8203-10.391 13.402zm204.57 59.188v-334.5c68.781-16.176 137.53-15.703 206.38-0.97266 10.215 2.1836 17.387 10.953 17.387 21.461v99.746l-68.547 68.605c-4.457 4.457-7.4688 9.832-8.9141 15.941l-11.188 46.848c-2.7148 11.426 0.58984 23.203 8.9141 31.527 8.3242 8.3242 20.102 11.633 31.527 8.9141l46.848-11.102c0.44141-0.14844 0.91406-0.23437 1.3594-0.38281v29.637c0 6.7891-2.7148 12.637-8 16.914-5.2266 4.3086-11.484 5.9023-18.215 4.6055-65.828-12.988-131.72-12.754-197.55 2.7461zm31.203-292.02c0.91406 6.582 6.9648 11.188 13.52 10.273 20.398-2.8047 40.738-4.0742 61.047-4.0156 20.25 0.089844 40.59 1.5938 60.988 4.3672 6.582 0.91406 12.695-3.6914 13.52-10.273 0.91406-6.582-3.6914-12.637-10.273-13.52-21.312-2.8633-42.773-4.457-64.234-4.5469-21.461-0.089844-42.922 1.3008-64.234 4.1641-6.5547 0.85547-11.219 6.9648-10.332 13.551zm0 58.094c0.91406 6.582 6.9648 11.246 13.52 10.273 20.398-2.7148 40.738-4.0742 61.047-4.0156 20.25 0.089844 40.59 1.5039 60.988 4.3086 6.582 0.91406 12.695-3.6914 13.52-10.273 0.91406-6.582-3.6914-12.637-10.273-13.52-21.312-2.9531-42.773-4.457-64.234-4.5469-21.461-0.089844-42.922 1.3594-64.234 4.1641-6.5547 1.0039-11.219 7.0547-10.332 13.609zm0 58.125c0.91406 6.582 6.9648 11.246 13.52 10.363 36.812-4.9883 73.77-5.2266 110.64-1.0625 6.582 0.67969 12.547-4.0742 13.312-10.656 0.67969-6.6406-4.0742-12.637-10.656-13.312-38.848-4.3672-77.613-4.0742-116.55 1.1211-6.4961 0.91406-11.16 6.9648-10.273 13.551zm0 58.125c0.91406 6.582 6.9648 11.188 13.52 10.273 12.781-1.7422 25.625-2.8633 38.375-3.4844 12.84-0.58984 25.625-0.67969 38.465-0.14844 6.6406 0.23438 12.25-4.9883 12.398-11.57 0.23438-6.6406-4.9883-12.25-11.57-12.398-13.52-0.53125-26.98-0.53125-40.355 0.14844-13.461 0.67969-26.98 1.8906-40.441 3.6914-6.6133 0.85547-11.277 6.9062-10.391 13.492zm45.195 65.355c10.746-0.67969 21.312-0.97266 31.676-0.91406 6.6406 0.089843 12.105-5.2852 12.164-11.926 0.089844-6.6406-5.2852-12.016-11.926-12.105-11.336-0.089844-22.438 0.14844-33.328 0.91406-11.039 0.67969-22.23 1.8008-33.418 3.3359-6.582 0.91406-11.246 6.9648-10.363 13.52 0.91406 6.582 6.9648 11.246 13.52 10.273 10.508-1.4453 21.105-2.4805 31.676-3.1016zm375.44-286.55-20.398-20.398c-7.8516-7.8516-20.781-7.8516-28.637 0l-16.031 16.031 49.031 49.031 16.031-16.031c7.8828-7.8516 7.8828-20.781 0-28.637zm-273.03 203.52 49.031 49.031 190.91-190.91-49.031-49.031zm-17.77 66.863c2.4219 2.332 5.5781 3.2461 8.8555 2.4805l35.66-8.4727-38.555-38.555-8.4727 35.66c-0.79687 3.3047 0.11719 6.4648 2.5078 8.8867z"/>
</svg>
