<?xml version="1.0" encoding="UTF-8"?>
<svg width="1200pt" height="1200pt" version="1.1" viewBox="0 0 1200 1200" xmlns="http://www.w3.org/2000/svg">
 <path d="m1200 600c0 214.36-114.36 412.44-300 519.62-185.64 107.18-414.36 107.18-600 0-185.64-107.18-300-305.26-300-519.62s114.36-412.44 300-519.62c185.64-107.18 414.36-107.18 600 0 185.64 107.18 300 305.26 300 519.62z" fill="#a8aaad"/>
 <path d="m562.51 693.52h205.16v25.445h-205.16z"/>
 <path d="m506.81 693.52h37.137v25.445h-37.137z"/>
 <path d="m432.3 693.52h55.91v25.445h-55.91z"/>
 <path d="m719.55 769.86-53.668-31.469-17.562 17.562 31.645 53.609c9.625 16.293 32.031 19.129 45.402 5.7266 13.371-13.402 10.539-35.836-5.8164-45.43z"/>
 <path d="m894.32 773.4-15.617-76.516c-5.668-27.691-29.816-47.824-57.828-48.887l-8.9141-67.602c2.3906-1.9492 4.6953-4.0742 6.6992-6.4648 9.1523-11.012 12.84-25.387 10.215-39.438l-23.91-127.38c-3.4531-18.301-17.121-32.383-34.391-37.168v-68.93c0-17.949-14.582-32.531-32.531-32.531h-75.867c-17.949 0-32.531 14.582-32.531 32.531v66.98h-59.305v-66.98c0-17.949-14.582-32.531-32.531-32.531h-75.867c-17.949 0-32.531 14.582-32.531 32.531v68.898c-17.27 4.7812-30.938 18.863-34.391 37.168l-23.91 127.38c-2.6562 14.082 1.0938 28.457 10.215 39.438 2.0078 2.4219 4.3086 4.5469 6.6992 6.4648l-8.9141 67.602c-28.043 1.0625-52.16 21.195-57.828 48.887l-15.617 76.516c-3.7188 18.125 0.88672 36.754 12.574 51.07 8.9727 11.012 21.285 18.301 34.895 21.168-2.4492 21.578 4.1641 43.246 18.508 59.57 14.672 16.707 35.836 26.301 58.035 26.301h340.6c22.23 0 43.395-9.5938 58.035-26.301 14.348-16.355 20.957-37.992 18.508-59.57 13.609-2.8633 25.918-10.156 34.895-21.168 11.719-14.348 16.293-32.945 12.574-51.07zm-239.23-472.38c0-3.9258 3.1602-7.0859 7.0859-7.0859h75.867c3.9258 0 7.0859 3.1602 7.0859 7.0859v66.98h-90.035zm-193.15-7.0859h75.867c3.9258 0 7.0859 3.1602 7.0859 7.0859v66.98h-90.035v-66.98c0-3.9258 3.1602-7.0859 7.0859-7.0859zm-41.891 117.85c1.9766-10.625 11.277-18.332 22.082-18.332h315.68c10.805 0 20.102 7.7031 22.082 18.332l23.91 127.38c1.2383 6.582-0.5 13.312-4.7812 18.48-4.3086 5.1367-10.566 8.1172-17.301 8.1172l-363.52 0.03125c-6.6992 0-13.02-2.9531-17.301-8.1172-4.2812-5.1641-6.0234-11.895-4.7812-18.48l23.91-127.38zm-63.703 408.38c-7.1445-1.9492-13.578-5.9336-18.363-11.809-6.8477-8.3828-9.5039-19.277-7.3789-29.875l15.617-76.516c3.0117-14.672 14.996-25.27 29.402-27.691l-19.305 145.89zm452.87 68.281c-9.832 11.219-24.031 17.652-38.906 17.652h-340.6c-14.906 0-29.078-6.4336-38.906-17.652-9.832-11.219-14.348-26.094-12.367-40.887l33.949-256.97c1.9492 0.23438 3.8672 0.64844 5.8438 0.64844h363.54c1.9766 0 3.9258-0.41406 5.8438-0.64844l33.949 256.97c1.9492 14.762-2.5391 29.668-12.367 40.887zm52.812-80.059c-4.7812 5.875-11.246 9.8594-18.363 11.809l-19.305-145.89c14.406 2.4219 26.391 13.047 29.402 27.691l15.617 76.516c2.1836 10.598-0.5 21.492-7.3789 29.875z"/>
 <path d="m526.26 440.36h147.52c9.6523 0 17.504 9.6523 17.504 17.504v43.512c0 9.6523-7.8242 17.504-17.504 17.504h-147.52c-9.6523 0-17.504-9.6523-17.504-17.504v-43.512c0-9.6523 7.8242-17.504 17.504-17.504z"/>
</svg>
