<?xml version="1.0" encoding="UTF-8"?>
<svg width="1200pt" height="1200pt" version="1.1" viewBox="0 0 1200 1200" xmlns="http://www.w3.org/2000/svg">
 <path d="m1200 600c0 214.36-114.36 412.44-300 519.62-185.64 107.18-414.36 107.18-600 0-185.64-107.18-300-305.26-300-519.62s114.36-412.44 300-519.62c185.64-107.18 414.36-107.18 600 0 185.64 107.18 300 305.26 300 519.62z" fill="#a8aaad"/>
 <path d="m599.23 398.96h1.5039c27.957-0.76562 49.891-22.672 49.891-50.625 0-27.957-22.672-50.625-50.625-50.625-27.957 0-50.625 22.672-50.625 50.625 0 27.957 21.902 50.625 49.859 50.625zm15.883 495.77c4.5469 4.5469 11.336 7.5586 17.387 7.5586 13.609 0 24.945-11.336 24.945-24.945v-133.75h-49.891v133.75c0 6.8203 3.0117 12.84 7.5586 17.387zm-65.742 0c4.5469 4.5469 11.336 7.5586 17.387 7.5586 13.609 0 24.945-11.336 24.945-24.945l-0.03125-133.75h-49.891v133.75c0.76562 6.8203 3.0391 12.84 7.5859 17.387zm111.85-416.41c3.0117-2.2422 6.7891-1.5039 9.8008 1.5352l2.3008 2.3008v0.76562c21.902 35.512 36.281 75.57 43.07 119.41 2.2734 6.0508 9.832 9.832 16.621 7.5586 5.2852-2.2734 9.0625-6.7891 9.0625-12.84 0-1.5039 0-3.0117-0.76562-4.5469 0 0-0.76562-1.5039-0.76562-2.2734-21.902-80.855-40.797-136.03-52.133-151.14-3.0117-3.7773-6.0508-6.7891-6.0508-6.7891-10.566-10.566-25.684-17.387-42.332-17.387h-80.121c-16.621 0.76562-30.996 6.7891-42.332 17.387 0 0-3.0117 3.0117-6.0508 6.7891-11.336 15.883-30.23 71.023-52.133 151.91-0.76562 2.2734-0.76562 4.5469-0.76562 5.2852 0 5.2852 3.7773 10.566 9.0625 12.84 6.7891 2.2734 13.609-0.76562 16.621-7.5586 6.7891-43.836 21.168-83.898 43.07-119.41v-0.76562l2.3008-2.3008c2.2734-2.2734 6.7891-3.0117 9.832-1.5039 3.7773 2.2734 4.5469 6.7891 3.0117 9.832v0.76563c-41.535 65.711-55.883 145.83-43.039 240.29h199.52c12.84-93.695-1.5039-174.59-41.562-238.82v-0.76562c-0.76562-3.75 0.73828-8.2969 3.7773-10.566zm-0.76562 86.906c9.832 10.566 8.3242 24.176 8.3242 30.23-3.0117 37.02-52.133 64.234-61.961 69.52-0.76562 0.76562-2.2734 0.76562-3.7773 0.76562-1.5039 0-2.2734 0-3.7773-0.76562-9.832-5.2852-59.688-32.5-61.961-69.52-0.76563-6.0508-1.5039-19.66 8.3242-30.23 6.0234-6.7891 14.316-10.566 24.914-10.566 15.113-0.76562 26.449 8.3242 33.238 15.113 6.7891-6.7891 18.125-15.883 33.238-15.113 9.0938 0.76562 18.156 4.5469 23.438 10.566zm-50.625 21.168c-1.5039 2.2734-3.7773 3.7773-6.7891 3.7773s-5.2852-1.5039-6.7891-3.7773c0 0-9.832-15.883-24.945-15.883h-0.76562c-6.0508 0-10.566 2.2734-13.609 6.0508-5.2852 5.2852-4.5469 13.609-4.5469 18.895 1.5039 21.902 30.996 43.836 49.891 55.172 19.66-10.566 48.355-32.5 49.891-55.172 0-5.2852 0.76562-12.84-4.5469-18.895-3.0117-3.7773-8.3242-5.2852-13.609-6.0508-13.609-0.73828-24.176 15.883-24.176 15.883z"/>
</svg>
