<?xml version="1.0" encoding="UTF-8"?>
<svg width="1200pt" height="1200pt" version="1.1" viewBox="0 0 1200 1200" xmlns="http://www.w3.org/2000/svg">
 <path d="m1200 600c0 214.36-114.36 412.44-300 519.62-185.64 107.18-414.36 107.18-600 0-185.64-107.18-300-305.26-300-519.62s114.36-412.44 300-519.62c185.64-107.18 414.36-107.18 600 0 185.64 107.18 300 305.26 300 519.62z" fill="#a8aaad"/>
 <path d="m781.38 564.11v71.793c-0.089844 6.6133-5.4336 11.957-12.043 12.043h-97.773c-6.2578 0-12.25 2.4805-16.707 6.9062-4.4297 4.457-6.9062 10.449-6.9062 16.707v97.773c-0.089843 6.6133-5.4336 11.957-12.043 12.043h-71.793c-6.6133-0.089844-11.957-5.4336-12.043-12.043v-97.773c0-6.2578-2.4805-12.25-6.9062-16.707-4.4297-4.4297-10.449-6.9062-16.707-6.9062h-97.773c-6.6133-0.089844-11.957-5.4336-12.043-12.043v-71.793c0.089843-6.6133 5.4336-11.957 12.043-12.043h97.773c6.2578 0 12.25-2.4805 16.707-6.9062 4.4297-4.457 6.9062-10.449 6.9062-16.707v-97.773c0.089844-6.6133 5.4336-11.957 12.043-12.043h71.793c6.6133 0.089844 11.957 5.4336 12.043 12.043v97.773c0 6.2578 2.4805 12.25 6.9062 16.707 4.4297 4.4297 10.449 6.9062 16.707 6.9062h97.773c6.6133 0.089844 11.957 5.4336 12.043 12.043zm145.48-224.27 0.03125 520.32c0 17.684-7.0273 34.656-19.543 47.172-12.516 12.516-29.492 19.543-47.172 19.543h-520.32c-17.684 0-34.656-7.0273-47.172-19.543-12.516-12.516-19.543-29.492-19.543-47.172v-520.32c0-17.684 7.0273-34.656 19.543-47.172s29.492-19.543 47.172-19.543h520.32c17.684 0 34.656 7.0273 47.172 19.543s19.543 29.492 19.543 47.172zm-98.242 224.27c-0.03125-32.707-26.539-59.246-59.277-59.277h-74.156v-74.156c-0.03125-32.707-26.566-59.246-59.277-59.277h-71.793c-32.707 0.03125-59.246 26.566-59.277 59.277v74.156h-74.156c-32.738 0.03125-59.246 26.566-59.277 59.277v71.793c0.03125 32.707 26.539 59.246 59.277 59.277h74.156v74.156c0.03125 32.707 26.566 59.246 59.277 59.277h71.793c32.707-0.03125 59.246-26.566 59.277-59.277v-74.156h74.156c32.738-0.03125 59.246-26.566 59.277-59.277z"/>
</svg>
