<?xml version="1.0" encoding="UTF-8"?>
<svg width="1200pt" height="1200pt" version="1.1" viewBox="0 0 1200 1200" xmlns="http://www.w3.org/2000/svg">
 <defs>
  <clipPath id="a">
   <path d="m222.14 223h755.71v754h-755.71z"/>
  </clipPath>
 </defs>
 <path class="bg-circle" d="m1200 600c0 214.36-114.36 412.44-300 519.62-185.64 107.18-414.36 107.18-600 0-185.64-107.18-300-305.26-300-519.62s114.36-412.44 300-519.62c185.64-107.18 414.36-107.18 600 0 185.64 107.18 300 305.26 300 519.62z" fill="#a8aaad"/>
 <g clip-path="url(#a)">
  <path d="m318.78 531.68-10.734-9.4805c-2.4922-2.207-3.8477-5.4453-3.8477-9.2109v-20.051c0-6.2812 4.2031-11.383 9.3633-11.383h96.859c5.1602 0 9.3633 5.1016 9.3633 11.383v20.051c0 3.7656-1.3477 7.0039-3.8477 9.2109l-10.723 9.4805c-2.5039 2.2188-3.8594 5.457-3.8594 9.2109v260.8c0 3.7539 1.3477 6.9922 3.8594 9.2109l10.723 9.4805c2.4922 2.207 3.8477 5.4453 3.8477 9.2109v20.051c0 6.2812-4.2031 11.383-9.3633 11.383h-96.859c-5.1602 0-9.3633-5.1016-9.3633-11.383v-20.051c0-3.7656 1.3477-7.0039 3.8477-9.2109l10.734-9.4805c2.4922-2.2188 3.8477-5.457 3.8477-9.2109v-260.8c0-3.7539-1.3477-6.9922-3.8477-9.2109zm-75.926-142.44 342.43-161.95c9.6836-4.582 19.742-4.582 29.426 0l342.43 161.95c12.906 6.1055 20.711 18.68 20.711 33.371v23.805c0 6.7305-5.3008 12.223-11.809 12.223h-732.1c-6.5078 0-11.809-5.4922-11.809-12.223v-23.805c0-14.688 7.8047-27.266 20.711-33.371zm-13.215 527.12h17.961c6.5078 0 11.809-6.3867 11.809-14.219v-6.3867c0-7.3438 4.9844-13.355 11.074-13.355h659.03c6.0938 0 11.074 6.0117 11.074 13.355v6.3867c0 7.8281 5.3008 14.219 11.809 14.219h17.961c4.1211 0 7.5 4.0625 7.5 9.0312v41.742c0 4.9727-3.3789 9.0312-7.5 9.0312h-740.72c-4.1211 0-7.5-4.0625-7.5-9.0312v-41.742c0-4.9727 3.3789-9.0312 7.5-9.0312zm370.36-388.84c82.031 0 148.54 66.504 148.54 148.54s-66.504 148.54-148.54 148.54-148.54-66.504-148.54-148.54 66.504-148.54 148.54-148.54zm-57.824 110.65c0-25.789 17.051-45.461 41.223-52.699v-19.922c0-3.8711 3.1641-7.0391 7.0391-7.0391h19.129c3.8711 0 7.0391 3.1641 7.0391 7.0391l0.09375 19.188c4.5938 1.1562 9.0195 2.8828 13.164 5.1836 15.102 8.418 23.98 23.027 26.875 39.852 0.36719 2.0898-0.1875 4.0977-1.5586 5.7266-1.3711 1.6172-3.2578 2.5039-5.3828 2.5039h-17.535c-3.1406 0-5.832-2.0078-6.7422-5.0078-6.8477-22.672-49.016-24.926-49.016 2.8711 0 15.16 19.305 20.758 30.867 24.973 26.734 9.7656 50.457 20.027 50.457 53.09 0 25.789-17.039 45.473-41.223 52.711v19.898c0 3.8867-3.1641 7.0508-7.0391 7.0508h-19.129c-3.8711 0-7.0391-3.1641-7.0391-7.0508l-0.09375-19.176c-4.5938-1.1562-9.0195-2.8828-13.164-5.1836-15.113-8.418-23.992-23.027-26.875-39.852-0.36719-2.0898 0.1875-4.0977 1.5586-5.7266 1.3711-1.6289 3.2461-2.5039 5.3828-2.5039h17.535c3.1406 0 5.832 2.0078 6.7422 5.0078 6.8477 22.672 49.016 24.914 49.016-2.8711 0-16.047-22.164-21.773-34.254-26.215-25.625-9.4102-47.066-20.523-47.066-51.848zm57.824-336.74c27.512 0 49.816 22.305 49.816 49.816 0 27.512-22.305 49.816-49.816 49.816s-49.816-22.305-49.816-49.816c0-27.512 22.305-49.816 49.816-49.816zm194.79 230.25-10.723-9.4805c-2.5039-2.207-3.8594-5.4453-3.8594-9.2109v-20.051c0-6.2812 4.2148-11.383 9.3633-11.383h96.875c5.1602 0 9.3633 5.1016 9.3633 11.383v20.051c0 3.7656-1.3594 7.0039-3.8594 9.2109l-10.723 9.4805c-2.5039 2.2188-3.8594 5.457-3.8594 9.2109v260.8c0 3.7539 1.3594 6.9922 3.8594 9.2109l10.723 9.4805c2.5039 2.207 3.8594 5.4453 3.8594 9.2109v20.051c0 6.2812-4.2031 11.383-9.3633 11.383h-96.875c-5.1484 0-9.3633-5.1016-9.3633-11.383v-20.051c0-3.7656 1.3594-7.0039 3.8594-9.2109l10.723-9.4805c2.5039-2.2188 3.8594-5.457 3.8594-9.2109v-260.8c0-3.7539-1.3594-6.9922-3.8594-9.2109z" fill-rule="evenodd"/>
 </g>
</svg>
