<?xml version="1.0" encoding="UTF-8"?>
<svg width="1200pt" height="1200pt" version="1.1" viewBox="0 0 1200 1200" xmlns="http://www.w3.org/2000/svg">
 <path class="bg-circle" d="m1200 600c0 214.36-114.36 412.44-300 519.62-185.64 107.18-414.36 107.18-600 0-185.64-107.18-300-305.26-300-519.62s114.36-412.44 300-519.62c185.64-107.18 414.36-107.18 600 0 185.64 107.18 300 305.26 300 519.62z" fill="#a8aaad"/>
 <path class="icon" d="m889.3 331.37c13.344 0 26.094 5.3125 35.543 14.641 9.4453 9.4453 14.762 22.199 14.762 35.543v294.73c0 47.352-20.191 92.453-55.5 123.87l-77.227 68.723c-13.227 11.691-20.781 28.574-20.781 46.289v15.469c0 4.8398-4.0156 8.8555-8.8555 8.8555h-354.24c-4.8398 0-8.8555-4.0156-8.8555-8.8555v-15.469c0-17.711-7.5586-34.48-20.781-46.289l-77.227-68.723c-35.305-31.527-55.5-76.516-55.5-123.87v-294.73c0-13.344 5.3125-26.094 14.762-35.543 9.4453-9.4453 22.199-14.641 35.426-14.641 13.227 0 26.094 5.3125 35.426 14.641 9.4453 9.4453 14.762 22.199 14.762 35.543v206.05c10.391-9.8008 24.09-15.23 38.375-15.23 14.289 0 29.168 5.9023 39.676 16.414l146.54 146.54c5.9023 5.9023 10.746 12.637 14.523 19.836 3.7773-7.2031 8.6211-13.934 14.523-19.836l146.54-146.54c10.508-10.508 24.797-16.414 39.676-16.414s27.984 5.4336 38.375 15.23v-206.05c0-13.344 5.3125-26.094 14.641-35.543 9.4453-9.4453 22.199-14.641 35.543-14.641zm-578.59 17.711c-8.6211 0-16.887 3.4258-23.027 9.4453-6.1406 6.1406-9.5625 14.406-9.5625 23.027v294.73c0 42.273 18.066 82.539 49.594 110.64l77.227 68.723c17.004 15.113 26.688 36.723 26.688 59.512v6.6133h159.41v-130c0-16.414-6.4961-32.234-18.184-43.809l-146.54-146.54c-7.2031-7.2031-17.004-11.219-27.16-11.219s-19.957 4.0156-27.16 11.219c-7.2031 7.2031-11.219 17.004-11.219 27.16s4.0156 19.957 11.219 27.16l77.582 77.582c3.4258 3.4258 3.4258 9.0938 0 12.516-3.4258 3.4258-9.0938 3.4258-12.516 0l-77.582-77.582c-10.508-10.508-16.414-24.797-16.414-39.676v-247.03c0-8.6211-3.4258-16.887-9.5625-23.027-6.1406-6.0234-14.289-9.4453-22.906-9.4453zm578.59 0c-8.6211 0-16.887 3.4258-22.906 9.4453-6.1406 6.1406-9.5625 14.406-9.5625 23.027v246.91c0 14.879-5.9023 29.168-16.414 39.676l-77.582 77.582c-3.4258 3.4258-9.0938 3.4258-12.516 0-3.4258-3.4258-3.4258-9.0938 0-12.516l77.582-77.582c7.2031-7.2031 11.219-17.004 11.219-27.16s-4.0156-19.957-11.219-27.16c-7.2031-7.2031-17.004-11.219-27.16-11.219s-19.957 4.0156-27.16 11.219l-146.54 146.54c-11.57 11.691-18.184 27.395-18.184 43.809v130h159.41v-6.6133c0-22.672 9.6836-44.398 26.688-59.512l77.227-68.723c31.527-28.102 49.594-68.367 49.594-110.64v-294.61c0-8.6211-3.4258-16.887-9.5625-23.027-6.1406-6.0234-14.289-9.4453-22.906-9.4453zm-289.3-88.562c96.121 0 174.17 78.051 174.17 174.17 0 96.121-78.051 174.17-174.17 174.17-96.121 0-174.17-78.051-174.17-174.17 0-96.121 78.051-174.17 174.17-174.17zm0 17.711c-86.316 0-156.46 70.141-156.46 156.46s70.141 156.46 156.46 156.46 156.46-70.141 156.46-156.46-70.141-156.46-156.46-156.46zm0 29.52c70.02 0 126.94 56.914 126.94 126.94 0 70.023-56.914 126.94-126.94 126.94s-126.94-56.914-126.94-126.94c0-70.023 56.914-126.94 126.94-126.94zm0 17.711c-60.34 0-109.22 48.887-109.22 109.22 0 60.336 48.887 109.22 109.22 109.22s109.22-48.887 109.22-109.22c0-60.336-48.887-109.22-109.22-109.22zm-8.8555 164.49c-5.9023-1.418-11.219-4.3672-15.586-8.6211-3.3047-3.3047-5.9023-7.3203-7.4375-11.57-1.6523-4.6055 0.58984-9.6836 5.1953-11.453 4.6055-1.6523 9.6836 0.58984 11.336 5.1953 0.70703 2.0078 1.8906 3.7773 3.4258 5.3125 2.7148 2.7148 6.4961 4.3672 10.391 4.3672h1.5352c3.8984 0 7.6758-1.5352 10.391-4.3672 2.7148-2.832 4.3672-6.4961 4.3672-10.391 0-3.8984-1.5352-7.6758-4.3672-10.391-2.7148-2.7148-6.4961-4.3672-10.391-4.3672-8.6211 0-16.887-3.4258-23.027-9.5625-6.1406-6.1406-9.5625-14.289-9.5625-22.906 0-8.6211 3.4258-16.887 9.5625-23.027 4.0156-3.8984 8.8555-6.7305 14.051-8.2656v-15.941c0-4.8398 4.0156-8.8555 8.8555-8.8555 4.8398 0 8.8555 4.0156 8.8555 8.8555v15.586c5.9023 1.418 11.219 4.3672 15.586 8.6211 3.3047 3.3047 5.9023 7.3203 7.4375 11.691 1.6523 4.6055-0.58984 9.6836-5.1953 11.336-4.6055 1.6523-9.6836-0.58984-11.336-5.1953-0.70703-2.0078-1.8906-3.7773-3.4258-5.3125-2.7148-2.7148-6.4961-4.3672-10.391-4.3672h-1.5352c-3.8984 0-7.6758 1.5352-10.391 4.3672-2.7148 2.7148-4.3672 6.4961-4.3672 10.391 0 3.8984 1.5352 7.6758 4.3672 10.391 2.7148 2.7148 6.4961 4.3672 10.391 4.3672 8.6211 0 16.887 3.4258 22.906 9.4453 6.1406 6.1406 9.5625 14.406 9.5625 23.027 0 8.6211-3.4258 16.887-9.5625 22.906-3.8984 3.8984-8.8555 6.8477-14.051 8.2656v15.941c0 4.8398-4.0156 8.8555-8.8555 8.8555s-8.8555-4.0156-8.8555-8.8555v-15.586z" fill-rule="evenodd"/>
</svg>
