<?xml version="1.0" encoding="UTF-8"?>
<svg width="1200pt" height="1200pt" version="1.1" viewBox="0 0 1200 1200" xmlns="http://www.w3.org/2000/svg">
 <path class="bg-circle" d="m1200 600c0 214.36-114.36 412.44-300 519.62-185.64 107.18-414.36 107.18-600 0-185.64-107.18-300-305.26-300-519.62s114.36-412.44 300-519.62c185.64-107.18 414.36-107.18 600 0 185.64 107.18 300 305.26 300 519.62z" fill="#a8aaad"/>
 <path class="icon" d="m600 488.3c28.043 0 53.461-11.363 71.852-29.758 18.391-18.391 29.758-43.777 29.758-71.852 0-28.074-11.363-53.461-29.758-71.852-18.391-18.391-43.777-29.758-71.852-29.758s-53.461 11.363-71.852 29.758c-18.391 18.391-29.758 43.777-29.758 71.852 0 28.043 11.363 53.461 29.758 71.852 18.391 18.391 43.809 29.758 71.852 29.758zm0 151.56 180.98-38.199c-19.895-26.215-45.344-48.031-74.539-63.645-31.762-17.004-68.016-26.625-106.45-26.625-38.438 0-74.688 9.6523-106.45 26.625-29.195 15.617-54.641 37.43-74.539 63.645zm255.41 41.094c-10.094 1.7109-19.75 6.4648-27.543 14.258-10.008 10.008-14.996 23.086-14.996 36.191 0 13.105 4.9883 26.184 14.996 36.191 7.793 7.793 17.445 12.547 27.543 14.258v81.004l-246.75 52.102v-259.22l246.75-52.102zm8.6484 16.562c-8.6797 0-17.328 3.3047-23.941 9.918-6.6133 6.6133-9.918 15.293-9.918 23.941 0 8.6797 3.3047 17.328 9.918 23.941 6.6133 6.6133 15.262 9.918 23.91 9.918h0.058594c8.6484 0 17.328-3.3047 23.91-9.918 6.6133-6.6133 9.918-15.293 9.918-23.941 0-8.6797-3.3047-17.328-9.918-23.941-6.582-6.6133-15.262-9.918-23.941-9.918zm-519.46 84.309c10.094-1.7109 19.75-6.4648 27.543-14.258 9.9766-9.9766 14.996-23.086 14.996-36.191s-4.9883-26.184-14.996-36.191c-7.793-7.793-17.445-12.547-27.543-14.258v-77.34l246.75 52.102v259.22l-246.75-52.102zm-8.6797-16.562h0.058593c8.6484 0 17.328-3.3047 23.91-9.918 6.6133-6.6133 9.918-15.293 9.918-23.941 0-8.6797-3.3047-17.328-9.918-23.941-6.6133-6.6133-15.293-9.918-23.941-9.918-8.6797 0-17.328 3.3047-23.941 9.918-6.6133 6.6133-9.918 15.293-9.918 23.941 0 8.6797 3.3047 17.328 9.918 23.941 6.582 6.582 15.262 9.8906 23.91 9.918z" fill-rule="evenodd"/>
</svg>
