<?xml version="1.0" encoding="UTF-8"?>
<svg width="1200pt" height="1200pt" version="1.1" viewBox="0 0 1200 1200" xmlns="http://www.w3.org/2000/svg">
 <path d="m1200 600c0 214.36-114.36 412.44-300 519.62-185.64 107.18-414.36 107.18-600 0-185.64-107.18-300-305.26-300-519.62s114.36-412.44 300-519.62c185.64-107.18 414.36-107.18 600 0 185.64 107.18 300 305.26 300 519.62z" fill="#a8aaad"/>
 <path d="m600 259.93c-187.69 0-340.07 152.38-340.07 340.07s152.38 340.07 340.07 340.07c187.7 0 340.07-152.38 340.07-340.07s-152.38-340.07-340.07-340.07zm-49.688 323.15c-5.8711 67.449-21.34 132.86-45.457 196.46-5.8867 15.531 1.9414 32.91 17.473 38.797 15.523 5.8867 32.91-1.9336 38.797-17.465 17.062-45.027 30.113-90.891 38.875-137.65 8.7656 46.762 21.816 92.629 38.883 137.65 5.8867 15.531 23.277 23.352 38.797 17.465 15.531-5.8867 23.359-23.27 17.473-38.797-24.102-63.562-39.57-128.95-45.449-196.34 36.039-1.7695 72.094-5.5469 108.15-11.402 16.391-2.668 27.539-18.137 24.879-34.527-2.668-16.383-18.137-27.531-34.527-24.871-98.855 16.066-197.72 15.434-296.58-0.03125-16.406-2.5625-31.809 8.6758-34.371 25.082-2.5703 16.406 8.668 31.809 25.074 34.371 35.996 5.6289 71.98 9.4102 107.98 11.254zm49.688-192.5c29.98 0 54.312 24.336 54.312 54.305 0 29.973-24.336 54.305-54.312 54.305-29.973 0-54.305-24.336-54.305-54.305 0-29.973 24.336-54.305 54.305-54.305z" fill-rule="evenodd"/>
</svg>
