<?xml version="1.0" encoding="UTF-8"?>
<svg width="1200pt" height="1200pt" version="1.1" viewBox="0 0 1200 1200" xmlns="http://www.w3.org/2000/svg">
 <path d="m1200 600c0 214.36-114.36 412.44-300 519.62-185.64 107.18-414.36 107.18-600 0-185.64-107.18-300-305.26-300-519.62s114.36-412.44 300-519.62c185.64-107.18 414.36-107.18 600 0 185.64 107.18 300 305.26 300 519.62z" fill="#a8aaad"/>
 <path d="m701.55 673.21c0-24.797-20.074-46.051-46.051-46.051h-88.562c10.625 11.809 16.531 28.34 16.531 46.051 0 17.711-5.9023 33.062-16.531 46.051h88.562c25.977-1.1797 46.051-21.254 46.051-46.051z"/>
 <path d="m513.8 627.16c-18.895 0-35.426 11.809-42.508 27.16-2.3633 5.9023-3.543 11.809-3.543 17.711 0 24.797 20.074 46.051 46.051 46.051 24.797 0 46.051-20.074 46.051-46.051 0-23.617-20.074-44.871-46.051-44.871z"/>
 <path d="m445.32 660.22c-57.859-14.168-94.465-36.605-114.54-54.316v30.699c0 4.7227 2.3633 8.2656 4.7227 10.625 16.531 12.988 50.773 34.242 112.18 48.414-2.3633-7.0859-3.543-15.352-3.543-22.438 0-4.7227 0-9.4453 1.1797-12.988z"/>
 <path d="m571.66 535.05 236.16-98.008h1.1797l51.957-22.438-289.3-120.45c-3.543-1.1797-9.4453-1.1797-12.988 0l-289.3 120.45 53.137 22.438h1.1797l234.98 98.008c3.543 2.3633 8.2656 2.3633 12.988 0zm-23.617-175.94-144.05 60.223c-1.1797 1.1797-3.543 1.1797-4.7227 1.1797-4.7227 0-9.4453-2.3633-11.809-8.2656-2.3633-5.9062 0-14.168 7.0859-16.531l144.05-60.223c5.9023-2.3633 14.168 0 16.531 7.0859 2.3633 5.9023-1.1797 14.168-7.0859 16.531z"/>
 <path d="m741.7 907.01 17.711-18.895c2.3633-3.543 5.9023-4.7227 10.625-4.7227 3.543 0 8.2656 1.1797 10.625 4.7227l17.711 18.895v-164.13h-56.68z"/>
 <path d="m884.57 627.16h-83.84c10.625 11.809 16.531 28.34 16.531 46.051 0 17.711-5.9023 33.062-16.531 46.051h85.02c24.797 0 46.051-20.074 46.051-46.051-1.1797-24.797-21.254-46.051-47.23-46.051z"/>
 <path d="m564.57 561.04c-5.9023 0-10.625-1.1797-16.531-3.543l-218.45-89.742v103.91c8.2656 10.625 43.688 46.051 123.98 64.945 11.809-20.074 34.242-34.242 60.223-34.242h285.75v-134.61l-218.45 90.922c-4.7227 2.3633-10.625 2.3633-16.531 2.3633z"/>
 <path d="m672.03 834.98 17.711-18.895c2.3633-3.543 5.9023-4.7227 10.625-4.7227 4.7227 0 8.2656 1.1797 10.625 4.7227l5.9023 5.9023v-79.117h-43.688v92.105z"/>
 <path d="m746.42 718.08c24.797 0 46.051-20.074 46.051-46.051 0-24.797-20.074-46.051-46.051-46.051h-36.605c10.625 11.809 16.531 28.34 16.531 46.051s-5.9023 33.062-16.531 46.051z"/>
</svg>
