<?xml version="1.0" encoding="UTF-8"?>
<svg width="1200pt" height="1200pt" version="1.1" viewBox="0 0 1200 1200" xmlns="http://www.w3.org/2000/svg">
 <path class="bg-circle" d="m1200 600c0 214.36-114.36 412.44-300 519.62-185.64 107.18-414.36 107.18-600 0-185.64-107.18-300-305.26-300-519.62s114.36-412.44 300-519.62c185.64-107.18 414.36-107.18 600 0 185.64 107.18 300 305.26 300 519.62z" fill="#a8aaad"/>
 <path class="icon" d="m839.64 679.8-114.86-63.703c3.543 13.668 6.4336 27.66 8.6797 41.328 4.5469 27.57 6.4336 53.668 6.2578 72.027 25.918 11.102 39.969 39.91 32.648 67.188l-11.484 41.711c-2.1836 3.9258-6.8789 6.0508-11.484 4.8398l-12.84-3.4844c-5.4336-1.4453-8.6211-7.0273-7.1719-12.398 1.4453-5.4336 7.0273-8.6211 12.398-7.1719l3.0117 0.82813 7.9414-29.551c5.2266-19.484-6.4961-39.824-26.008-45.047-19.57-5.2266-39.824 6.4336-45.047 26.008l-7.9414 29.551 3.0117 0.82812c5.4336 1.4453 8.6211 7.0273 7.1719 12.398-1.4453 5.4336-7.0273 8.6211-12.398 7.1719l-12.84-3.3945c-6.6406-1.7422-8.3828-9.2109-7.1719-12.398l10.566-39.438c6.9648-25.625 30.996-43.156 57.27-42.156-0.14844-16.914-2.0352-39.91-5.9648-64.234-3.1875-19.188-7.6445-39.23-13.609-57.652-7.0273-2.7148-14.199-3.9258-22.23-3.9258l-155.25-0.03125c-5.9648 0-11.484 0.67969-16.77 2.1836-10.422 30.672-17.445 59.777-21.02 85.605-3.1875 23.352-3.543 43.895-0.91406 60.547 1.1211-0.089843 2.332-0.14844 3.4844-0.14844 20.398 0 36.957 16.562 36.957 36.957 0 20.398-16.621 36.957-36.957 36.957-20.34 0-36.957-16.621-36.957-36.957 0-11.336 5.3711-22.23 14.199-29.168-3.6914-19.426-3.6328-43.688 0.089844-70.879 2.9531-21.902 8.3242-45.875 15.883-70.965l-120.09 66.566c-17.977 9.9766-29.168 26.301-32.031 46.641l-20.398 144.56c-1.0625 7.5586 0.97266 14.438 5.9648 20.191 4.9883 5.7578 11.57 8.7695 19.188 8.7695h533.9c7.6445 0 14.199-3.0117 19.188-8.7695 4.9883-5.7578 7.0273-12.695 5.9648-20.191l-20.398-144.56c-2.7148-20.34-13.875-36.664-31.941-46.641zm-242.65-379.75c73.535 0 133.16 59.629 133.16 133.16s-59.629 133.16-133.16 133.16c-73.535 0-133.16-59.629-133.16-133.16 0-73.594 59.629-133.16 133.16-133.16zm-109.81 467.51c9.2109 0 16.621 7.4688 16.621 16.621 0 9.2109-7.4102 16.621-16.621 16.621-9.2109 0-16.621-7.4102-16.621-16.621 0-9.2383 7.4102-16.621 16.621-16.621z" fill-rule="evenodd"/>
</svg>
