<?xml version="1.0" encoding="UTF-8"?>
<svg width="1200pt" height="1200pt" version="1.1" viewBox="0 0 1200 1200" xmlns="http://www.w3.org/2000/svg">
 <defs>
  <clipPath id="b">
   <path d="m552 505h379v472.86h-379z"/>
  </clipPath>
  <clipPath id="a">
   <path d="m269 222.14h520v661.86h-520z"/>
  </clipPath>
 </defs>
 <path class="bg-circle" d="m1200 600c0 214.36-114.36 412.44-300 519.62-185.64 107.18-414.36 107.18-600 0-185.64-107.18-300-305.26-300-519.62s114.36-412.44 300-519.62c185.64-107.18 414.36-107.18 600 0 185.64 107.18 300 305.26 300 519.62z" fill="#a8aaad"/>
 <g clip-path="url(#b)">
  <path d="m859.78 505.54h-236.16c-39.074 0-70.848 31.777-70.848 70.848v330.62c0 39.074 31.777 70.848 70.848 70.848h236.16c39.074 0 70.848-31.777 70.848-70.848v-330.62c0-39.074-31.773-70.848-70.848-70.848zm-172.28 417.93c-4.3672 4.3672-10.52 6.8477-16.648 6.8477-6.1523 0-12.281-2.4805-16.648-6.8477-4.4883-4.4883-6.9648-10.508-6.9648-16.766 0-6.2578 2.4805-12.281 6.9648-16.766 8.7383-8.7383 24.562-8.7383 33.297 0 4.4883 4.4883 6.9648 10.508 6.9648 16.766 0 6.2539-2.4805 12.277-6.9648 16.766zm0-70.852c-4.3672 4.3672-10.52 6.8477-16.648 6.8477-6.1523 0-12.281-2.4805-16.648-6.8477-4.4883-4.4883-6.9648-10.629-6.9648-16.766 0-6.2578 2.4805-12.281 6.9648-16.766 8.7383-8.7383 24.562-8.7383 33.297 0 4.4883 4.4883 6.9648 10.508 6.9648 16.766 0 6.1406-2.4805 12.281-6.9648 16.766zm0-70.965c-4.3672 4.4883-10.391 6.9648-16.648 6.9648-6.2578 0-12.281-2.4805-16.648-6.9648-4.4883-4.3672-6.9648-10.391-6.9648-16.648 0-6.2578 2.4805-12.281 6.9648-16.648 8.7383-8.8555 24.562-8.8555 33.297 0 4.4883 4.3672 6.9648 10.391 6.9648 16.648 0 6.2578-2.4805 12.281-6.9648 16.648zm70.848 141.7c-4.3672 4.4883-10.391 6.9648-16.648 6.9648-6.2578 0-12.281-2.4805-16.766-6.9648-4.3672-4.3672-6.8477-10.508-6.8477-16.648 0-6.2578 2.4805-12.281 6.8477-16.648 8.8555-8.8555 24.68-8.8555 33.418 0 4.4883 4.3672 6.9648 10.391 6.9648 16.648-0.003906 6.1406-2.4805 12.281-6.9688 16.648zm0-70.848c-4.3672 4.4883-10.391 6.9648-16.648 6.9648-6.2578 0-12.281-2.4805-16.766-6.9648-4.3672-4.3672-6.8477-10.508-6.8477-16.648 0-6.2578 2.4805-12.281 6.8477-16.648 8.8555-8.8555 24.68-8.8555 33.418 0 4.4883 4.3672 6.9648 10.391 6.9648 16.648-0.003906 6.1406-2.4805 12.281-6.9688 16.648zm0-70.848c-4.3672 4.4883-10.391 6.9648-16.648 6.9648-6.2578 0-12.281-2.4805-16.766-6.9648-4.3672-4.3672-6.8477-10.391-6.8477-16.648 0-6.1406 2.4805-12.281 6.8477-16.648 8.8555-8.8555 24.68-8.8555 33.418-0.11719 4.4883 4.4883 6.9648 10.629 6.9648 16.766-0.003906 6.1406-2.4805 12.281-6.9688 16.648zm70.848 141.7c-4.3672 4.4883-10.52 6.9648-16.648 6.9648-6.1523 0-12.281-2.4805-16.648-6.8477-4.4883-4.4883-6.9648-10.508-6.9648-16.766s2.4805-12.281 6.9648-16.648c8.8555-8.8555 24.562-8.8555 33.297-0.11719 4.4883 4.4883 6.9648 10.629 6.9648 16.766 0.003906 6.2578-2.4766 12.281-6.9648 16.648zm0-70.848c-4.3672 4.4883-10.52 6.9648-16.648 6.9648-6.1523 0-12.281-2.4805-16.648-6.8477-4.4883-4.4883-6.9648-10.508-6.9648-16.766 0-6.2578 2.4805-12.281 6.9648-16.648 8.7383-8.8555 24.562-8.8555 33.297 0 4.4883 4.3672 6.9648 10.508 6.9648 16.648 0.003906 6.2578-2.4766 12.281-6.9648 16.648zm0-70.848c-4.3672 4.4883-10.391 6.9648-16.648 6.9648-6.1523 0-12.281-2.4805-16.648-6.8477-4.4883-4.4883-6.9648-10.508-6.9648-16.766 0-6.2578 2.4805-12.281 6.9648-16.648 8.7383-8.8555 24.562-8.8555 33.297 0 4.4883 4.3672 6.9648 10.508 6.9648 16.648 0.003906 6.2578-2.4766 12.281-6.9648 16.648zm30.582-110.8c0 13.035-10.578 23.617-23.617 23.617l-188.93-0.003906c-13.035 0-23.617-10.578-23.617-23.617v-70.848c0-13.035 10.578-23.617 23.617-23.617h188.93c13.035 0 23.617 10.578 23.617 23.617z"/>
 </g>
 <g clip-path="url(#a)">
  <path d="m782.01 299.91-70.848-70.848c-4.4297-4.4297-10.441-6.9219-16.699-6.9219h-401.47c-13.035 0-23.617 10.578-23.617 23.617v614.02c0 13.035 10.578 23.617 23.617 23.617h236.16v-307.01c0-52.086 42.379-94.465 94.465-94.465h165.31v-165.31c0-6.2578-2.4922-12.27-6.918-16.695zm-354.17 434.82c-4.4883 4.4883-10.625 6.9688-16.766 6.9688-6.1523 0-12.281-2.4805-16.648-6.9648-4.4883-4.3711-6.9688-10.395-6.9688-16.652 0-6.2578 2.4805-12.281 6.8477-16.648 8.8555-8.8555 24.562-8.8555 33.418-0.11719 4.4883 4.4844 6.9648 10.625 6.9648 16.766s-2.4766 12.281-6.8477 16.648zm30.465-63.879h-94.465c-13.035 0-23.617-10.578-23.617-23.617 0-13.035 10.578-23.617 23.617-23.617h94.465c13.035 0 23.617 10.578 23.617 23.617 0 13.035-10.582 23.617-23.617 23.617zm-70.848-94.465c0-6.2578 2.4805-12.281 6.8477-16.648 8.8555-8.8555 24.562-8.8555 33.418 0 4.4883 4.3672 6.9648 10.508 6.9648 16.648s-2.4805 12.281-6.8477 16.648c-4.4883 4.4883-10.625 6.9648-16.766 6.9648-6.1523 0-12.281-2.4805-16.648-6.8477-4.4883-4.4883-6.9688-10.508-6.9688-16.766zm70.848-188.93h-23.617v23.617c0 13.035-10.578 23.617-23.617 23.617-13.035 0-23.617-10.578-23.617-23.617v-23.617h-23.617c-13.035 0-23.617-10.578-23.617-23.617 0-13.035 10.578-23.617 23.617-23.617h23.617l0.003906-23.613c0-13.035 10.578-23.617 23.617-23.617 13.035 0 23.617 10.578 23.617 23.617v23.617h23.617c13.035 0 23.617 10.578 23.617 23.617-0.003906 13.035-10.586 23.613-23.621 23.613zm229.24 6.918c9.2227 9.2227 9.2227 24.172 0 33.395-4.6172 4.6172-10.652 6.918-16.695 6.918-6.0469 0-12.078-2.3008-16.695-6.918l-30.539-30.535-30.535 30.535c-4.6172 4.6172-10.652 6.918-16.695 6.918-6.0469 0-12.078-2.3008-16.695-6.918-9.2227-9.2227-9.2227-24.172 0-33.395l30.535-30.535-30.535-30.535c-9.2227-9.2227-9.2227-24.172 0-33.395s24.172-9.2227 33.395 0l30.531 30.539 30.535-30.535c9.2227-9.2227 24.172-9.2227 33.395 0 9.2227 9.2227 9.2227 24.172 0 33.395l-30.535 30.531z"/>
 </g>
</svg>
