<?xml version="1.0" encoding="UTF-8"?>
<svg width="1200pt" height="1200pt" version="1.1" viewBox="0 0 1200 1200" xmlns="http://www.w3.org/2000/svg">
 <path d="m1200 600c0 214.36-114.36 412.44-300 519.62-185.64 107.18-414.36 107.18-600 0-185.64-107.18-300-305.26-300-519.62s114.36-412.44 300-519.62c185.64-107.18 414.36-107.18 600 0 185.64 107.18 300 305.26 300 519.62z" fill="#a8aaad"/>
 <path d="m917.96 451.49h-483.83c-6.9961 0.03125-12.664 5.6992-12.664 12.695v18.125c-33.832-11.867-142.94-16.738-151.82 22.289-0.14844 0.82812-0.23438 1.6836-0.26562 2.5391v207.82c0.03125 0.94531 0.11719 1.8594 0.26562 2.8047 6.9961 39.438 136 37.105 167.14 14.582 22.438 11.777 62.996 12.664 73.504 12.664 11.277 0 57.152-1.0039 78.051-15.586h329.59l0.03125-0.03125c6.9961 0 12.637-5.668 12.664-12.664v-252.54c-0.03125-6.9961-5.668-12.664-12.664-12.695zm-349.75 146c-16.266 9.918-99.48 9.9766-115.69 0 16.176-9.9766 99.422-9.918 115.69 0zm-146.75 21.168c-5.9648 4.043-28.398 10.656-63.352 10.656-35.129 0-57.652-6.6992-63.379-10.773v-35.75c20.605 5.7578 41.949 8.5898 63.352 8.3555 21.43 0.23437 42.746-2.5977 63.379-8.3555zm-126.73 27.484c20.605 5.875 41.949 8.7383 63.352 8.5 21.43 0.23438 42.773-2.6289 63.379-8.5v20.398c-5.9648 4.043-28.398 10.656-63.352 10.656-35.129 0-57.652-6.6992-63.379-10.773zm152.09-23.824h-0.03125c20.664 5.875 42.035 8.7383 63.496 8.5 21.371 0.23438 42.688-2.6289 63.23-8.5v23.203c-19.984 8.3242-41.625 11.984-63.23 10.625-35.363 0-58.035-6.7305-63.496-10.773zm167.03-45.875-0.03125-20.516c1.1523-19.363 17.625-34.215 37.02-33.328v-17.004c0-6.9961 5.668-12.664 12.664-12.664 6.9961 0 12.664 5.668 12.664 12.664v17.004c19.336-0.85547 35.777 13.992 36.871 33.328 0 6.9961-5.668 12.664-12.664 12.664-6.9961 0-12.664-5.668-12.664-12.664 0-3.6602-4.6953-7.8516-11.543-7.9688v36.488c19.305-0.91406 35.75 13.902 36.871 33.18v20.664c-1.1523 19.277-17.562 34.035-36.871 33.211v10.391c0 6.9961-5.668 12.664-12.664 12.664-6.9961 0-12.664-5.668-12.664-12.664v-10.391c-19.336 0.88672-35.809-13.902-37.02-33.211 0.11719-6.9062 5.7578-12.457 12.664-12.457 6.9375 0 12.574 5.5508 12.695 12.457 0 3.543 4.8125 7.7344 11.66 7.8516v-36.367c-19.395 0.88672-35.867-13.965-37.02-33.328zm260.93 114.8h-119.64c-6.9375-0.089844-12.488-5.7266-12.488-12.664s5.5508-12.574 12.488-12.664h119.61c6.9062 0.089843 12.488 5.7266 12.488 12.664s-5.5781 12.574-12.488 12.664zm-339.16-192.47c6.9375 0.089843 12.516 5.7266 12.516 12.664s-5.5781 12.574-12.516 12.664h-88.828v-25.328zm-177.53 0.38281c19.633-0.58984 39.203 2.0977 57.918 7.9688-18.715 5.875-38.289 8.5625-57.918 7.9688-19.57 0.62109-39.113-2.0977-57.77-7.9688 18.656-5.875 38.199-8.5898 57.77-7.9688zm0 41.297c21.43 0.23438 42.773-2.6289 63.379-8.5v23.203c-5.9648 4.043-28.398 10.656-63.352 10.656-35.129 0-57.652-6.7305-63.379-10.773v-23.086c20.605 5.875 41.949 8.7383 63.352 8.5zm-1.7695 182.49c-34.363-0.26562-55.762-6.582-61.609-10.656l0.03125-18.242c20.605 5.8438 41.949 8.707 63.352 8.4727 21.43 0.23438 42.773-2.6289 63.379-8.4727v18.242c-20.637 8.4141-42.922 12.074-65.152 10.656zm90.48-14.051v-35.895c20.664 5.875 42.035 8.7383 63.496 8.5 21.371 0.23438 42.688-2.6289 63.23-8.5v35.984c-19.984 8.3555-41.625 11.984-63.23 10.656-35.363 0-58.035-6.7305-63.496-10.773z"/>
 <path d="m650.84 547.93c-6.8477 0.11719-11.66 4.3086-11.66 7.9688v20.516c0 3.6914 4.8125 7.8516 11.66 7.9688z"/>
 <path d="m687.7 638.29v-20.664c0-3.543-4.6953-7.7344-11.543-7.8516v36.367c6.8477-0.11719 11.543-4.3086 11.543-7.8516z"/>
</svg>
