<?xml version="1.0" encoding="UTF-8"?>
<svg width="1200pt" height="1200pt" version="1.1" viewBox="0 0 1200 1200" xmlns="http://www.w3.org/2000/svg">
 <path d="m600.01 160.44c185.51 0 335.89 150.39 335.89 335.9 0 185.52-150.38 335.9-335.89 335.9-185.52 0-335.91-150.38-335.91-335.9s150.39-335.9 335.91-335.9m89.629 442.43-89.629 28.078-185.82-58.211v-49.066l185.82 58.656 89.629-28.309zm24.105-94.176 47.004-14.832c-1.7148-5.3984-5.9297-9.9102-11.746-11.746l-143.59-45.324c-9.4805-2.9883-19.598 2.2695-22.57 11.746-2.9883 9.4688 2.2695 19.559 11.723 22.547zm47.008-14.844c0.55078 1.7383 0.81641 3.5508 0.81641 5.4102v32.039l24.227-7.6445v49.066l-24.203 7.5859v69.371l9.4219 12.191c6.0703 7.8477 4.6211 19.105-3.2383 25.164-7.4297 5.7461-17.965 4.7266-24.18-2.0898-6.2383 6.8164-16.766 7.8242-24.191 2.0898-7.8359-6.0586-9.2656-17.316-3.2539-25.164l9.4453-12.191v-137.26l-11.867-3.7422-113.75 35.902-287.21-90.66 287.21-90.672 287.2 90.672zm-160.74-433.84c240.97 0 436.32 195.35 436.32 436.33-14.734 295.66-226.75 482.92-397.62 629.23-22.453 19.223-54.984 19.223-77.398 0-170.89-146.31-382.93-333.57-397.64-629.23 0-240.98 195.36-436.33 436.34-436.33z" fill-rule="evenodd"/>
</svg>
