<?xml version="1.0" encoding="UTF-8"?>
<svg width="1200pt" height="1200pt" version="1.1" viewBox="0 0 1200 1200" xmlns="http://www.w3.org/2000/svg">
 <path d="m1200 600c0 214.36-114.36 412.44-300 519.62-185.64 107.18-414.36 107.18-600 0-185.64-107.18-300-305.26-300-519.62s114.36-412.44 300-519.62c185.64-107.18 414.36-107.18 600 0 185.64 107.18 300 305.26 300 519.62z" fill="#a8aaad"/>
 <path d="m702.29 519.09c3.0391-3.8086 5.3438-6.1094 6.8789-9.1523 9.918-13.727 8.3828-25.18-4.5742-36.633-5.3438-4.5742-12.223-10.688-18.332-14.496-15.262-13.727-22.906-19.836-32.059-32.059-23.676-25.18-46.555-40.473-77.875-33.594-29.02 6.8789-54.199 35.867-54.199 65.652-0.76562 16.797 1.5352 32.828 1.5352 48.855 0 22.141 0.76563 38.938-0.76562 58.773l-10.688 167.94c-1.5352 19.07 13.727 35.867 33.594 35.867h1.5352l25.949-0.03125v164.13c0 20.605 16.797 36.633 36.633 36.633h0.76562c19.836 0 36.633-16.031 36.633-35.867l4.5742-164.87h32.059c9.1523-0.76563 16.797-5.3438 22.906-11.453l0.76562-0.76562c0.76562-0.76563 0.76562-0.76563 1.5352-1.5352 0.76562-0.76562 1.5352-2.3008 2.3008-3.8086 0-0.76563 0.76562-1.5352 0.76562-2.3008s0.76563-1.5352 0.76563-2.3008c0.76562-1.5352 0.76562-3.0391 0.76562-4.5742v-5.3359c-1.5352-14.496-1.5352-11.453-3.0391-25.949 48.09-19.07 70.23-41.211 73.27-80.145 6.082-61.816-25.977-96.18-81.707-112.97z"/>
 <path d="m669.46 306.87c0 40.473-32.797 73.297-73.27 73.297s-73.297-32.828-73.297-73.297c0-40.473 32.828-73.27 73.297-73.27 40.473 0 73.27 32.797 73.27 73.27"/>
</svg>
