<?xml version="1.0" encoding="UTF-8"?>
<svg width="1200pt" height="1200pt" version="1.1" viewBox="0 0 1200 1200" xmlns="http://www.w3.org/2000/svg">
 <defs>
  <clipPath id="d">
   <path d="m222.14 222.14h358.86v359.86h-358.86z"/>
  </clipPath>
  <clipPath id="c">
   <path d="m222.14 620h358.86v357.86h-358.86z"/>
  </clipPath>
  <clipPath id="b">
   <path d="m619 222.14h358.86v359.86h-358.86z"/>
  </clipPath>
  <clipPath id="a">
   <path d="m619 620h358.86v357.86h-358.86z"/>
  </clipPath>
 </defs>
 <path class="bg-circle" d="m1200 600c0 214.36-114.36 412.44-300 519.62-185.64 107.18-414.36 107.18-600 0-185.64-107.18-300-305.26-300-519.62s114.36-412.44 300-519.62c185.64-107.18 414.36-107.18 600 0 185.64 107.18 300 305.26 300 519.62z" fill="#a8aaad"/>
 <g clip-path="url(#d)">
  <path d="m222.14 326.43v254.68h358.21v-358.96h-253.92c-57.434 0-104.29 46.855-104.29 104.29zm123.18 68.77h41.562v-41.562h30.984v41.562h41.562l0.003906 30.984h-41.562v41.562h-30.984v-41.562h-41.562z"/>
 </g>
 <g clip-path="url(#c)">
  <path d="m222.14 873.57c0 57.434 46.855 104.29 104.29 104.29h253.92l-0.003907-357.45h-358.21zm123.18-89.93h114.11v30.984h-114.11z"/>
 </g>
 <g clip-path="url(#b)">
  <path d="m873.57 222.14h-253.92v358.96h358.21v-254.68c0-57.434-46.855-104.29-104.29-104.29zm-28.719 217.64-21.914 21.914-29.473-29.473-29.473 29.473-21.914-21.914 29.473-29.473-29.473-29.473 21.914-21.914 29.473 29.473 29.473-29.473 21.914 21.914-29.473 29.473z"/>
 </g>
 <g clip-path="url(#a)">
  <path d="m619.65 977.86h253.92c57.434 0 104.29-46.855 104.29-104.29v-253.16h-358.21zm173.82-102.02c-11.336 0-20.402-9.0703-20.402-20.402 0-11.336 9.0703-20.402 20.402-20.402 11.336 0 20.402 9.0703 20.402 20.402 0 11.336-9.0664 20.402-20.402 20.402zm0-153.41c11.336 0 20.402 9.0703 20.402 20.402 0 11.336-9.0703 20.402-20.402 20.402-11.336 0-20.402-9.0703-20.402-20.402-0.003906-11.332 9.0664-20.402 20.402-20.402zm-56.68 61.215h114.11v30.984h-114.11z"/>
 </g>
</svg>
