<?xml version="1.0" encoding="UTF-8"?>
<svg width="1200pt" height="1200pt" version="1.1" viewBox="0 0 1200 1200" xmlns="http://www.w3.org/2000/svg">
 <path d="m1200 600c0 214.36-114.36 412.44-300 519.62-185.64 107.18-414.36 107.18-600 0-185.64-107.18-300-305.26-300-519.62s114.36-412.44 300-519.62c185.64-107.18 414.36-107.18 600 0 185.64 107.18 300 305.26 300 519.62z" fill="#a8aaad"/>
 <path d="m694.05 523.13v24.562c0 5.4609-4.457 9.8906-9.8906 9.8906h-26.422v26.422c0 5.4609-4.457 9.8906-9.8906 9.8906h-24.562c-5.4609 0-9.8906-4.457-9.8906-9.8906v-26.422h-26.422c-5.4609 0-9.8906-4.457-9.8906-9.8906v-24.562c0-5.4609 4.457-9.8906 9.8906-9.8906h26.422v-26.422c0-5.4609 4.457-9.8906 9.8906-9.8906h24.562c5.4609 0 9.8906 4.457 9.8906 9.8906v26.422h26.422c5.4336 0 9.8906 4.4297 9.8906 9.8906zm113.33-40.355c-6.1406 43.277-28.547 74.863-58.773 108.84-10.035 11.277-97.594 94.078-113.03 94.078-15.469-0.03125-103.03-82.805-113.06-94.078-30.23-33.977-52.633-65.562-58.773-108.84-8.1172-57.297 24.293-101.25 85.078-101.25 45.047 0 66.215 21.227 86.758 57.477 20.516-36.25 41.711-57.477 86.758-57.477 60.723 0 93.164 43.957 85.047 101.25zm-99.188 40.355c0-13.254-10.773-24.059-24.059-24.059h-12.281v-12.281c0-13.254-10.773-24.059-24.059-24.059h-24.562c-13.254 0-24.059 10.773-24.059 24.059v12.281h-12.281c-13.254 0-24.059 10.773-24.059 24.059v24.562c0 13.254 10.773 24.059 24.059 24.059h12.281v12.281c0 13.254 10.773 24.059 24.059 24.059h24.562c13.254 0 24.059-10.773 24.059-24.059v-12.281h12.281c13.254 0 24.059-10.773 24.059-24.059zm188.16-1.8594c0 73.742-30.613 140.34-79.82 187.78-27.305 26.332-49.031 59.777-41.18 96.883l25.77 121.68c0.64844 3.0117-0.058594 5.875-2.0078 8.2969-1.9492 2.3906-4.6055 3.6602-7.7031 3.6602l-270.23-0.03125c-6.6719 0-12.309-4.4883-13.785-11.012l-11.633-51.219c-3.6602-16.059-13.43-29.902-29.902-29.902h-23.824c-47.793 0-66.242-26.008-70.082-59.188v-92.402c0-3.8984-3.1875-7.0859-7.0859-7.0859h-31.793c-10.215 0-19.012-4.043-24.59-11.305-5.5781-7.2617-6.4062-15.734-2.3008-23.676l68.547-132.52c0-144.03 116.75-260.81 260.81-260.81 144.05 0.03125 260.81 116.78 260.81 260.84zm-74.98-36.516c9.4453-66.656-30.496-117.4-99.066-117.4-41.328 0-66.125 16-86.758 45.078-20.637-29.078-45.402-45.078-86.758-45.078-68.605 0-108.51 50.746-99.066 117.4 6.6992 47.23 31.23 81.441 62.199 116.25 6.1992 6.9648 13.785 13.902 20.574 20.309 11.512 10.922 23.23 21.668 35.156 32.148 11.836 10.449 24.031 20.871 36.633 30.375 7.8516 5.9336 21.105 15.969 31.293 15.969 10.184 0 23.41-10.035 31.293-15.969 12.605-9.5039 24.797-19.926 36.633-30.375 11.895-10.508 23.617-21.227 35.156-32.148 6.7617-6.4062 14.375-13.371 20.574-20.309 30.938-34.805 55.438-69.02 62.141-116.25z"/>
</svg>
