<?xml version="1.0" encoding="UTF-8"?>
<svg width="1200pt" height="1200pt" version="1.1" viewBox="0 0 1200 1200" xmlns="http://www.w3.org/2000/svg">
 <path d="m1200 600c0 214.36-114.36 412.44-300 519.62-185.64 107.18-414.36 107.18-600 0-185.64-107.18-300-305.26-300-519.62s114.36-412.44 300-519.62c185.64-107.18 414.36-107.18 600 0 185.64 107.18 300 305.26 300 519.62z" fill="#a8aaad"/>
 <path d="m854.59 499.7v392.82c0 14.051-11.453 25.504-25.504 25.504h-458.15c-14.051 0-25.504-11.453-25.504-25.504v-392.82c0-0.41406 0.14844-0.73828 0.47266-1.0039l253.25-216.41c0.5-0.41406 1.2109-0.41406 1.7109 0l253.25 216.41c0.32422 0.26562 0.47266 0.62109 0.47266 1.0039zm-280.2 39.676c-8.6484 0-15.734 7.0547-15.734 15.734v65.684c0 0.73828-0.58984 1.3281-1.3281 1.3281h-65.684c-8.6484 0-15.734 7.0547-15.734 15.734v51.277c0 8.6484 7.0547 15.734 15.734 15.734h65.684c0.73828 0 1.3281 0.58984 1.3281 1.3281v65.684c0 8.6484 7.0547 15.734 15.734 15.734h51.277c8.6484 0 15.734-7.0547 15.734-15.734v-65.684c0-0.73828 0.58984-1.3281 1.3281-1.3281h65.684c8.6484 0 15.734-7.0547 15.734-15.734v-51.277c0-8.6484-7.0547-15.734-15.734-15.734h-65.684c-0.73828 0-1.3281-0.58984-1.3281-1.3281v-65.684c0-8.6484-7.0547-15.734-15.734-15.734zm25.625-72.5c-108.57 0-196.58 88.004-196.58 196.58s88.004 196.58 196.58 196.58c108.57 0 196.58-88.004 196.58-196.58s-88.004-196.58-196.58-196.58z" fill-rule="evenodd"/>
</svg>
