<?xml version="1.0" encoding="UTF-8"?>
<svg width="1200pt" height="1200pt" version="1.1" viewBox="0 0 1200 1200" xmlns="http://www.w3.org/2000/svg">
 <path d="m1200 600c0 214.36-114.36 412.44-300 519.62-185.64 107.18-414.36 107.18-600 0-185.64-107.18-300-305.26-300-519.62s114.36-412.44 300-519.62c185.64-107.18 414.36-107.18 600 0 185.64 107.18 300 305.26 300 519.62z" fill="#a8aaad"/>
 <path d="m600.37 510.26c26.102-31.617 10.773-81.18-27.277-95.41 15.23-35.777 34.008-99.305 15.586-122.09-21.02-25.98-75.688-35.188-119.85-35.188-6.2578 0-11.336 5.0781-11.336 11.453v22.555c-1.5078 4.5117 18.957 30.848 21.137 35.305l-7.2031 18.184-2.832-10.98c-0.59375-2.7188-2.3633-5.0781-4.7227-6.7305l-31.766-21.137-21.02-35.07c-2.5977-4.3672-7.793-6.375-12.633-5.1953-23.379 6.1406-39.91 15.113-49.477 26.805-18.422 22.789 0.47266 86.316 15.703 122.09-37.816 13.516-53.383 64.238-27.395 95.41-131.55 137.42-109.09 339.34 131.54 336.05 240.73 3.3359 263.31-198.72 131.54-336.05zm-217.74-76.871c0.89844-0.28125 6.5977-0.51172 15.316-0.69531 10.488-0.125 26.301-0.20703 43.922-0.25h-27.836c30.996-0.35547 77.988-0.35156 109.17 0h-26.875c17.164 0.042969 32.559 0.12109 42.941 0.24219 9.0508 0.18359 14.973 0.41797 15.879 0.70312 32.848 4.8203 47.488 45.215 23.262 67.422l-0.11719 0.11719c-0.58984 0.35547-1.0625 0.82812-1.5352 1.1797-8.0312 7.0859-18.773 10.98-30.23 10.98l-155.39 0.003906c-11.453 0-22.082-3.8984-30.23-11.098-26.805-21.883-11.324-64.379 21.727-68.605zm45.227 320.35v-37.078h-38.023c-6.2578 0-11.336-5.0781-11.336-11.453v-59.277c0-6.375 5.0781-11.453 11.336-11.453h38.023v-37.195c0-6.375 5.0781-11.453 11.453-11.453h59.16c6.375 0 11.453 5.0781 11.453 11.453v37.195h37.902c6.375 0 11.453 5.0781 11.453 11.453v59.277c0 6.375-5.0781 11.453-11.453 11.453h-37.902v37.078c0 6.375-5.0781 11.453-11.453 11.453h-59.16c-6.375 0-11.453-5.0781-11.453-11.453z"/>
 <path d="m441.86 432.45h54.457c-17.555-0.042968-36.863-0.042968-54.457 0z"/>
 <path d="m536.48 693.76v-36.488c-56.527-0.77734-49.258 8.9688-49.477-48.648h-36.367c-0.25391 57.273 7.2695 48.004-49.359 48.648v36.488c56.488 0.73828 49.105-8.8594 49.359 48.648h36.367c0.25391-57.379-7.1406-47.941 49.477-48.648z"/>
 <path d="m931.15 303.23h-300.88c-6.3047 0-11.414 5.1055-11.414 11.414s5.1094 11.414 11.414 11.414h289.47v593.55h-445.16v-39.148c0-6.3086-5.1094-11.414-11.414-11.414s-11.414 5.1055-11.414 11.414v50.562c0 6.3086 5.1094 11.414 11.414 11.414h467.99c6.3047 0 11.414-5.1055 11.414-11.414v-616.38c0-6.3086-5.1094-11.414-11.414-11.414z"/>
 <path d="m739.82 440.59c-3.7773-1.0625-7.9102 0.11719-10.746 2.9531l-68.484 68.484c-10.535 10.559 5.4648 26.648 16.059 16.176l63.996-63.996 39.32 9.918c4.25 1.0625 8.6211-0.35547 11.453-3.6602l53.254-62.109 6.8477 34.125c1.1523 6.1875 7.4062 10.168 13.344 8.8555 6.2578-1.1797 10.273-7.2031 8.9727-13.344l-11.453-57.031v-0.11719c-0.29297-1.3711-0.76172-2.4414-1.418-3.6602-0.11719-0.11719-0.11719-0.11719-0.11719-0.23828-0.35156-0.47266-0.70312-0.94531-1.0586-1.3008-0.35547-0.47266-0.82812-0.94531-1.2969-1.2969-1.2969-1.0625-2.7148-1.7734-4.25-2.125-0.47266-0.23437-0.82813-0.23437-1.3008-0.35547-0.58984-0.11719-1.0625-0.11719-1.6523-0.11719h-57.152c-14.891 0.058594-14.758 22.758 0 22.789h32.234l-47.703 55.734z"/>
 <path d="m860.97 377.18c0.35547 0.58984 0.58984 1.1797 0.82422 1.7695 0.03125-0.66016-0.54297-1.2852-0.82422-1.7695z"/>
 <path d="m874.08 588.59h-114.14c-14.953 0.058593-14.895 22.773 0 22.828h114.14c14.953-0.058593 14.891-22.773 0-22.828z"/>
 <path d="m874.08 668.49c14.961-0.0625 14.883-22.777 0-22.828h-136.97c-14.961 0.0625-14.883 22.777 0 22.828z"/>
 <path d="m691.41 794.01v57.152c0 6.2578 5.1953 11.336 11.453 11.336h171.21c6.2578 0 11.453-5.0781 11.453-11.336v-57.152c0-6.2578-5.1953-11.336-11.453-11.336h-171.21c-6.2578 0-11.453 5.0781-11.453 11.336z"/>
</svg>
