<?xml version="1.0" encoding="UTF-8"?>
<svg width="1200pt" height="1200pt" version="1.1" viewBox="0 0 1200 1200" xmlns="http://www.w3.org/2000/svg">
 <path class="bg-circle" d="m1200 600c0 214.36-114.36 412.44-300 519.62-185.64 107.18-414.36 107.18-600 0-185.64-107.18-300-305.26-300-519.62s114.36-412.44 300-519.62c185.64-107.18 414.36-107.18 600 0 185.64 107.18 300 305.26 300 519.62z" fill="#a8aaad"/>
 <path class="icon" d="m670.85 600h-165.31c-6.5195 0-11.809 5.2891-11.809 11.809v153.5h-70.848c-6.5195 0-11.809 5.2891-11.809 11.809v165.31c0 6.5195 5.2891 11.809 11.809 11.809h330.62c6.5195 0 11.809-5.2891 11.809-11.809l-0.003906-165.31c0-6.5195-5.2891-11.809-11.809-11.809h-70.848v-153.5c0-6.5156-5.2891-11.809-11.805-11.809zm-153.51 23.617h141.7v141.7h-141.7zm-82.656 165.31h141.7v141.7h-141.7zm307.01 141.7h-141.7v-141.7h141.7z"/>
 <path d="m633.89 723.9c2.1016-3.6953 2.043-8.2422-0.15234-11.891l-35.426-59.039c-4.2617-7.1211-15.988-7.1211-20.25 0l-35.426 59.039c-2.1953 3.6484-2.2422 8.1953-0.15234 11.891 2.1016 3.6953 6.0352 5.9883 10.285 5.9883h70.848c4.25 0 8.1836-2.293 10.273-5.9883zm-60.27-17.629 14.574-24.277 14.57 24.277z"/>
 <path d="m505.54 812.55c-26.047 0-47.23 21.184-47.23 47.23s21.184 47.23 47.23 47.23c26.047 0 47.23-21.184 47.23-47.23s-21.184-47.23-47.23-47.23zm0 70.848c-13.023 0-23.617-10.594-23.617-23.617 0-13.023 10.594-23.617 23.617-23.617 13.023 0 23.617 10.594 23.617 23.617-0.003906 13.023-10.594 23.617-23.617 23.617z"/>
 <path d="m662.5 816.01-35.426 35.426c-4.6172 4.6172-4.6172 12.078 0 16.695l35.426 35.426c2.3047 2.2969 5.3281 3.457 8.3516 3.457 3.0234 0 6.0469-1.1562 8.3477-3.4609l35.426-35.426c4.6172-4.6172 4.6172-12.078 0-16.695l-35.426-35.426c-4.6172-4.6133-12.082-4.6133-16.699 0.003906zm27.078 43.77-18.727 18.73-18.73-18.73 18.73-18.727z"/>
 <path d="m918.36 414.32 19.438-68.004c3.9219-13.734-1.4297-28.27-13.297-36.168-8.5508-5.6914-19.023-7.0625-28.742-3.7188-9.7188 3.3398-17.156 10.84-20.402 20.582l-13.426 40.277-28.246 14.121-2.4336-8.1211c17.277-12.93 28.527-33.488 28.527-56.68 0-39.074-31.777-70.848-70.848-70.848-39.074 0-70.848 31.777-70.848 70.848 0 23.191 11.254 43.75 28.527 56.68l-2.4336 8.1016-28.246-14.121-13.422-40.27c-3.2461-9.7422-10.688-17.238-20.402-20.582-9.7305-3.3398-20.191-1.9727-28.742 3.7188-11.867 7.9102-17.215 22.445-13.297 36.18l19.438 68.004c0.91016 3.1875 3.1172 5.832 6.0703 7.3203l57.859 28.93-40.266 134.25c-1.0742 3.5781-0.39062 7.4375 1.8438 10.438 2.2031 2.9883 5.7227 4.7461 9.4531 4.7461h11.809v94.465c0 19.531 15.895 35.426 35.426 35.426s35.426-15.895 35.426-35.426v-94.465h23.617v94.465c0 19.531 15.895 35.426 35.426 35.426s35.426-15.895 35.426-35.426v-94.465h11.809c3.7305 0 7.25-1.7578 9.4688-4.7578 2.2305-3 2.918-6.8711 1.8438-10.438l-40.266-134.25 57.859-28.93c2.9453-1.4766 5.1406-4.1328 6.0508-7.3086zm-129.43-144.95c26.047 0 47.23 21.184 47.23 47.23 0 17.699-9.9062 32.98-24.359 41.066-0.046875 0.023437-0.11719 0.023437-0.16406 0.046875-3.3398 1.8438-6.7539 3.2227-10.203 4.2266-0.42578 0.11719-0.82812 0.28516-1.25 0.39063-1.2383 0.32031-2.4922 0.53125-3.7305 0.74219-2.1953 0.35547-4.418 0.63672-6.6953 0.67188-0.54297 0.011719-1.0977 0.011719-1.6406 0-2.2773-0.035156-4.5-0.32031-6.6953-0.67188-1.25-0.21094-2.4922-0.42578-3.7305-0.74219-0.42578-0.10547-0.82812-0.27344-1.25-0.39063-3.4492-1.0039-6.8594-2.375-10.203-4.2266-0.046875-0.023438-0.11719-0.023438-0.16406-0.046875-14.469-8.082-24.375-23.363-24.375-41.062 0-26.051 21.184-47.234 47.23-47.234zm-108.15 133.46-17.996-62.996c-1.0859-3.8125 0.39062-7.8516 3.6836-10.047 2.375-1.5703 5.2773-1.9492 7.9688-1.0273 2.7031 0.92188 4.7578 3 5.6562 5.7148l14.973 44.918c0.99219 2.9648 3.1172 5.418 5.9141 6.8242l36.297 18.148-6.9609 23.238zm72.727 291.63c0 6.5078-5.3008 11.809-11.809 11.809-6.5078 0-11.809-5.3008-11.809-11.809v-94.465h23.617zm94.461 0c0 6.5078-5.3008 11.809-11.809 11.809-6.5078 0-11.809-5.3008-11.809-11.809v-94.465h23.617zm11.809-118.08h-149.44l38.566-128.54s0-0.011719 0.011719-0.011719l13.863-46.203v-0.011718l5.1953-17.324c3.2109 0.99219 6.543 1.6875 9.9297 2.2188 0.35547 0.058593 0.69531 0.10547 1.0508 0.16406 3.2539 0.46094 6.5742 0.78125 9.9727 0.78125 3.4023 0 6.7188-0.32031 9.9883-0.79297 0.35547-0.046874 0.69531-0.10547 1.0508-0.16406 3.3906-0.53125 6.7188-1.2266 9.9297-2.2188l5.1953 17.324v0.011719l13.863 46.203s0 0.011719 0.011719 0.011719l38.555 128.55zm-12.23-148.78-6.9805-23.25 36.297-18.148c2.7969-1.4062 4.9258-3.8594 5.9141-6.8242l14.973-44.918c0.89844-2.7031 2.9648-4.793 5.6562-5.7148s5.6094-0.54297 7.9688 1.0273c3.293 2.1953 4.7695 6.2344 3.6953 10.035l-18.008 63.008z"/>
 <path d="m238.59 346.32 19.438 68.004c0.91016 3.1875 3.1172 5.832 6.0703 7.3203l52.355 26.18-10.949 30.062c-0.33203 0.92188-0.54297 1.8672-0.63672 2.8203 0 0.011719-0.011719 0.023437-0.011719 0.035156l-11.809 118.08c-0.33203 3.3164 0.75391 6.625 3 9.1055 2.2305 2.4688 5.4102 3.8828 8.75 3.8828v70.848c0 19.531 15.895 35.426 35.426 35.426s35.426-15.895 35.426-35.426v-70.848h23.617v70.848c0 19.531 15.895 35.426 35.426 35.426s35.426-15.895 35.426-35.426v-70.848c3.3398 0 6.5195-1.418 8.75-3.8867 2.2422-2.4688 3.3281-5.7734 3-9.1055l-11.809-118.08c0-0.011719-0.011719-0.023437-0.011719-0.035156-0.09375-0.95703-0.30859-1.9023-0.63672-2.832l-10.934-30.074 52.355-26.18c2.9531-1.4766 5.1602-4.1328 6.0703-7.3203l19.438-68.004c3.9219-13.734-1.4297-28.27-13.297-36.168-8.5508-5.6914-19.023-7.0625-28.742-3.7188-9.7188 3.3398-17.156 10.84-20.402 20.582l-13.426 40.277-26.461 13.227-2.9648-8.1484c16.543-12.961 27.254-33.094 27.254-55.73 0-39.074-31.777-70.848-70.848-70.848-39.074 0-70.848 31.773-70.848 70.848 0 22.637 10.711 42.77 27.277 55.746l-2.9648 8.1484-26.461-13.227-13.426-40.277c-3.2461-9.7422-10.688-17.238-20.402-20.582-9.7461-3.3398-20.207-1.9727-28.742 3.7188-11.867 7.9141-17.207 22.449-13.297 36.18zm218.47 241.88h-57.801v-35.426h-23.617v35.426h-57.801l9.4453-94.465h120.32zm-105.04 94.461c0 6.5078-5.3008 11.809-11.809 11.809-6.5078 0-11.809-5.3008-11.809-11.809v-70.848h23.617zm94.465 0c0 6.5078-5.3008 11.809-11.809 11.809s-11.809-5.3008-11.809-11.809v-70.848h23.617zm28.895-296.44c2.7969-1.4062 4.9258-3.8594 5.9141-6.8242l14.973-44.918c0.89844-2.7031 2.9648-4.793 5.6562-5.7148s5.5977-0.54297 7.9688 1.0273c3.293 2.1953 4.7695 6.2344 3.6953 10.035l-18.008 63.008-45.262 22.637-0.60156-1.6523-7.6289-20.973zm-87.934-116.84c26.047 0 47.23 21.184 47.23 47.23 0 17.43-9.6016 32.52-23.688 40.703-0.046875 0.023437-0.10547 0.023437-0.15234 0.046875-3.2344 1.8672-6.5664 3.2344-9.9414 4.2969-0.69531 0.21094-1.3711 0.47266-2.0898 0.64844-1.2383 0.33203-2.4922 0.54297-3.7539 0.76562-2.207 0.36719-4.4414 0.63672-6.7422 0.68359-0.57812 0.011719-1.1445 0.011719-1.7227 0-2.3008-0.046875-4.5352-0.32031-6.7422-0.68359-1.25-0.21094-2.5039-0.4375-3.7539-0.76562-0.70703-0.17578-1.3828-0.4375-2.0781-0.64844-3.3789-1.0508-6.7188-2.4336-9.9531-4.2969-0.046874-0.023438-0.10547-0.023438-0.15234-0.046875-14.094-8.1797-23.691-23.27-23.691-40.699 0-26.051 21.184-47.234 47.23-47.234zm-11.727 117.03c0.27344 0.046875 0.55469 0.082031 0.82812 0.12891 3.5664 0.54297 7.1914 0.92188 10.898 0.92188s7.332-0.37891 10.887-0.92188c0.27344-0.046875 0.55469-0.082031 0.82812-0.12891 3.7188-0.625 7.3438-1.5117 10.84-2.6914l14.809 40.715 7.8398 21.574v0.011719l8.7852 24.098h-107.98l8.7734-24.113v-0.011719l7.8398-21.574 14.809-40.715c3.4961 1.1953 7.1211 2.082 10.84 2.707zm-110.75-56.621c2.375-1.5703 5.2773-1.9492 7.9688-1.0273 2.7031 0.92188 4.7578 3 5.6562 5.7148l14.973 44.918c0.99219 2.9648 3.1172 5.418 5.9141 6.8242l33.273 16.637-7.6016 20.973-0.60156 1.6523-45.262-22.637-18.004-63.004c-1.0859-3.8164 0.40234-7.8516 3.6836-10.051z"/>
</svg>
