<?xml version="1.0" encoding="UTF-8"?>
<svg width="1200pt" height="1200pt" version="1.1" viewBox="0 0 1200 1200" xmlns="http://www.w3.org/2000/svg">
 <path d="m1200 600c0 214.36-114.36 412.44-300 519.62-185.64 107.18-414.36 107.18-600 0-185.64-107.18-300-305.26-300-519.62s114.36-412.44 300-519.62c185.64-107.18 414.36-107.18 600 0 185.64 107.18 300 305.26 300 519.62z" fill="#a8aaad"/>
 <path d="m950.82 483.25-87.586-40.797-257.71-120.09c-2.0352-0.91406-4.3672-0.91406-6.3477 0l-345.36 160.88c-2.6562 1.2109-4.3672 3.9258-4.3672 6.8789s1.7422 5.5781 4.3672 6.8789l191.73 89.324v124.99c0 32.707 102.55 41.418 156.81 41.418s156.72-8.6211 156.72-41.418v-124.99l93.641-43.602v31.203h-11.777c-4.1641 0-7.5586 3.3945-7.5586 7.5586v55.762c0 14.82 12.105 26.895 26.895 26.895 14.82 0 26.895-12.105 26.895-26.895v-55.762c0-4.1641-3.3945-7.5586-7.5586-7.5586h-11.777v-38.316l82.977-38.613c2.6562-1.2109 4.3672-3.9258 4.3672-6.8789s-1.7422-5.5781-4.3672-6.8789zm-78.762 153.95c0 6.4961-5.2852 11.777-11.777 11.777-6.4961 0-11.777-5.2852-11.777-11.777v-48.207h23.586v48.207zm-128.09 54.789c-30.523-17.004-100.22-22.082-141.61-22.082-41.418 0-111.17 5.0781-141.7 22.082v-160.2c94.02-16.473 189.31-16.473 283.3 0zm-141.7 45.551c-93.488 0-141.7-18.449-141.7-26.301s48.207-26.301 141.7-26.301c93.488 0 141.61 18.449 141.61 26.301s-48.207 26.301-141.61 26.301zm156.81-168v-44.223c0-3.6328-2.5664-6.7891-6.1992-7.4102-99.898-18.215-201.24-18.215-301.17 0-3.6328 0.67969-6.1992 3.7773-6.1992 7.4102v44.223l-170.62-79.5 327.38-152.5 250.45 116.69v71.703zm108.75-50.625v-57.652l61.902 28.871zm-501.28-55.023c1.7422 3.7773 0.14844 8.3242-3.6328 10.035l-49.355 22.969c-1.0625 0.44141-2.125 0.67969-3.1875 0.67969-2.8633 0-5.5781-1.5938-6.8789-4.3672-1.7422-3.7773-0.14844-8.3242 3.6328-10.035l49.355-22.969c3.7773-1.7422 8.3242-0.14844 10.035 3.6328zm37.551-17.445c1.7422 3.7773 0.14844 8.3242-3.6328 10.035l-11.336 5.2852c-1.0625 0.44141-2.125 0.67969-3.1875 0.67969-2.8633 0-5.5781-1.5938-6.8789-4.3672-1.7422-3.7773-0.14844-8.3242 3.6328-10.035l11.336-5.2852c3.7773-1.7422 8.3242-0.14844 10.035 3.6328zm97.797-45.578c1.7422 3.7773 0.14844 8.3242-3.6328 10.035l-74.98 34.922c-1.0625 0.44141-2.125 0.67969-3.1875 0.67969-2.8633 0-5.5781-1.5938-6.8789-4.3672-1.7422-3.7773-0.14844-8.3242 3.6328-10.035l74.98-34.922c3.7773-1.8008 8.3242-0.14844 10.035 3.6328zm-19.867 182.73v37.195c0 4.1641-3.3945 7.5586-7.5586 7.5586s-7.5586-3.3945-7.5586-7.5586v-37.195c0-4.1641 3.3945-7.5586 7.5586-7.5586s7.5586 3.3945 7.5586 7.5586zm0-34.688v12.016c0 4.1641-3.3945 7.5586-7.5586 7.5586s-7.5586-3.3945-7.5586-7.5586v-12.016c0-4.1641 3.3945-7.5586 7.5586-7.5586s7.5586 3.3945 7.5586 7.5586zm211.3 16.266c0-5.668 4.6055-10.273 10.273-10.273 5.668 0 10.273 4.6055 10.273 10.273s-4.6055 10.273-10.273 10.273c-5.668 0-10.273-4.6055-10.273-10.273zm-27.895 22.73c0-5.668 4.6055-10.273 10.273-10.273 5.668 0 10.273 4.6055 10.273 10.273s-4.6055 10.273-10.273 10.273c-5.668 0-10.273-4.6055-10.273-10.273zm45.344 13.312c5.668 0 10.273 4.6055 10.273 10.273 0 5.668-4.6055 10.273-10.273 10.273s-10.273-4.6055-10.273-10.273c0-5.668 4.6055-10.273 10.273-10.273zm-452.31-204.96c0-4.1641 3.3945-7.5586 7.5586-7.5586h10.566v-10.566c0-4.1641 3.3945-7.5586 7.5586-7.5586s7.5586 3.3945 7.5586 7.5586v10.566h10.508c4.1641 0 7.5586 3.3945 7.5586 7.5586 0 4.1641-3.3945 7.5586-7.5586 7.5586h-10.508v10.566c0 4.1641-3.3945 7.5586-7.5586 7.5586s-7.5586-3.3945-7.5586-7.5586v-10.566h-10.566c-4.1641 0-7.5586-3.3945-7.5586-7.5586zm49.504-88.266c0-4.1641 3.3945-7.5586 7.5586-7.5586h10.566v-10.566c0-4.1641 3.3945-7.5586 7.5586-7.5586 4.1641 0 7.5586 3.3945 7.5586 7.5586v10.566h10.508c4.1641 0 7.5586 3.3945 7.5586 7.5586 0 4.1641-3.3945 7.5586-7.5586 7.5586h-10.508v10.566c0 4.1641-3.3945 7.5586-7.5586 7.5586-4.1641 0-7.5586-3.3945-7.5586-7.5586v-10.566h-10.566c-4.1641 0-7.5586-3.3945-7.5586-7.5586zm60.605 48.207c18.301 0 33.094 14.879 33.094 33.094 0 4.1641 3.3945 7.5586 7.5586 7.5586s7.5586-3.3945 7.5586-7.5586c0-18.301 14.879-33.094 33.094-33.094 4.1641 0 7.5586-3.3945 7.5586-7.5586 0-4.1641-3.3945-7.5586-7.5586-7.5586-18.301 0-33.094-14.879-33.094-33.094 0-4.1641-3.3945-7.5586-7.5586-7.5586s-7.5586 3.3945-7.5586 7.5586c0 18.301-14.879 33.094-33.094 33.094-4.1641 0-7.5586 3.3945-7.5586 7.5586 0 4.1641 3.3945 7.5586 7.5586 7.5586zm40.68-22.289c3.7773 5.9648 8.8555 10.953 14.82 14.82-5.9648 3.7773-10.953 8.8555-14.82 14.82-3.7773-5.9648-8.8555-10.953-14.82-14.82 5.9648-3.7773 10.953-8.8555 14.82-14.82zm388.87 444.13-193.53 13.078-233.15-14.82c-0.97266-0.089844-1.8906-0.14844-2.8633-0.14844h-0.23438c-23.645 0.14844-42.242 31.145-42.242 70.73 0 39.586 18.598 70.672 42.332 70.73h0.089844c1.0625 0 2.0352-0.089844 2.8633-0.14844l209.86-13.371h0.23828l23.055-1.4453 193.53 13.078c21.078 1.3594 40.5-12.164 46.168-32.355 6.7305-24.266 6.7305-48.824 0-73.152-5.668-20.191-24.945-33.625-46.168-32.266zm-223 111.32-178.89 11.426c9.0039-12.84 14.672-32.031 14.672-53.875 0-1.7422-0.089843-3.4844-0.14844-5.2266v-0.089844c-0.82812-19.57-6.2578-36.723-14.523-48.531l178.89 11.426c5.668 28.191 5.668 56.766 0 85.02zm-199 10.656v-50.773h19.66c-0.53125 25.238-9.5938 44.223-19.66 50.773zm-34.895-53.105c0-32.797 14.348-55.617 27.277-55.617 11.188 0 23.352 17.094 26.539 42.863h-26.449c-4.1641 0-7.5586 3.3945-7.5586 7.5586v58.422c-10.422-6.7305-19.809-26.688-19.809-53.137zm262.82 40.648-13.371 0.82812c5.0781-27.57 5.0781-55.379 0-82.977l13.371 0.82813h0.97266l18.449-1.3008c8.6797 27.809 8.6797 56 0 83.809l-18.449-1.3008h-0.97266zm225.65-8.1758c-3.6914 13.312-16.77 22.289-30.613 21.312l-160.14-10.805c8.2344-28.574 8.2344-57.355 0-85.934l160.14-10.805c13.816-1.0625 26.832 8 30.523 21.227 5.9648 21.609 5.9648 43.453 0 65.004z"/>
</svg>
