<?xml version="1.0" encoding="UTF-8"?>
<svg width="1200pt" height="1200pt" version="1.1" viewBox="0 0 1200 1200" xmlns="http://www.w3.org/2000/svg">
 <path class="bg-circle" d="m1200 600c0 214.36-114.36 412.44-300 519.62-185.64 107.18-414.36 107.18-600 0-185.64-107.18-300-305.26-300-519.62s114.36-412.44 300-519.62c185.64-107.18 414.36-107.18 600 0 185.64 107.18 300 305.26 300 519.62z" fill="#a8aaad"/>
 <path class="icon" d="m575.09 340.81h115.87c2.0078 0 3.957-1.1797 5.4609-3.0391 1.918-2.3633 3.1016-5.7578 3.1016-9.5625v-30.73c0-3.8086-1.1797-7.2031-3.1016-9.5625-1.5039-1.8906-3.4531-3.0391-5.4609-3.0391h-231.73c-2.0078 0-3.957 1.1797-5.4609 3.0391-1.918 2.3633-3.1016 5.7578-3.1016 9.5625v30.672c0 3.8086 1.1797 7.2031 3.1016 9.5625 1.5039 1.8906 3.4531 3.0391 5.4609 3.0391h19.957zm-107.98-37.668c0-4.457 3.6328-8.0898 8.0898-8.0898 4.457 0 8.0898 3.6328 8.0898 8.0898v19.395c0 4.457-3.6328 8.0898-8.0898 8.0898-4.457 0-8.0898-3.6328-8.0898-8.0898zm33.297 0c0-4.457 3.6328-8.0898 8.0898-8.0898s8.0898 3.6328 8.0898 8.0898v19.395c0 4.457-3.6328 8.0898-8.0898 8.0898s-8.0898-3.6328-8.0898-8.0898zm33.297 0c0-4.457 3.6328-8.0898 8.0898-8.0898 4.457 0 8.0898 3.6328 8.0898 8.0898v19.395c0 4.457-3.6328 8.0898-8.0898 8.0898-4.457 0-8.0898-3.6328-8.0898-8.0898zm33.297 0c0-4.457 3.6328-8.0898 8.0898-8.0898s8.0898 3.6328 8.0898 8.0898v19.395c0 4.457-3.6328 8.0898-8.0898 8.0898s-8.0898-3.6328-8.0898-8.0898zm33.297 0c0-4.457 3.6328-8.0898 8.0898-8.0898 4.457 0 8.0898 3.6328 8.0898 8.0898v19.395c0 4.457-3.6328 8.0898-8.0898 8.0898-4.457 0-8.0898-3.6328-8.0898-8.0898zm33.297 0c0-4.457 3.6328-8.0898 8.0898-8.0898s8.0898 3.6328 8.0898 8.0898v19.395c0 4.457-3.6328 8.0898-8.0898 8.0898s-8.0898-3.6328-8.0898-8.0898zm33.297 0c0-4.457 3.6328-8.0898 8.0898-8.0898 4.457 0 8.0898 3.6328 8.0898 8.0898v19.395c0 4.457-3.6328 8.0898-8.0898 8.0898-4.457 0-8.0898-3.6328-8.0898-8.0898zm-179.63 92.898h175.64v-39.086h-175.64zm-116.13 468.34-16 16c-3.957 3.957-5.9336 9.1797-5.9336 14.406 0 5.2266 1.9766 10.449 5.9336 14.406 3.957 3.957 9.1797 5.9336 14.406 5.9336 5.2266 0 10.449-1.9766 14.406-5.9336l16-16zm84.691 16.117c-5.7266-0.03125-11.426-1.2383-16.77-3.5703l-23.734 23.734c1.418 2.5391 3.3359 4.7227 5.6367 6.4648 3.3945 2.5391 7.6172 4.0742 12.223 4.0742h22.641zm27.777-10.035c-3.543 3.0117-7.4688 5.3438-11.602 6.9961v33.742h22.641c5.5781 0 10.688-2.3008 14.375-5.9922 3.6914-3.6914 5.9922-8.7969 5.9922-14.375 0-2.0977-0.32422-4.1016-0.91406-6.0234l-0.03125-0.058594c-1.0039-3.1875-2.7461-6.0234-5.0781-8.3242-3.6914-3.6914-8.7969-5.9922-14.375-5.9922zm-2.4805-24.324h-32c0.23438 1.7422 0.38281 3.4844 0.38281 5.2266 0 3.9258-0.62109 7.8516-1.8906 11.633 3.5703 1.2383 7.3789 1.6836 11.102 1.3008 0.94531-0.089843 1.8594-0.23438 2.7734-0.41406 0.35547-0.11719 0.73828-0.20703 1.1211-0.26562 4.3984-1.1211 8.5625-3.4258 12.016-6.8789l0.089844-0.089844c3.0703-3.0703 5.1953-6.6719 6.4062-10.508zm17.418-8.1484c-0.03125-10.773-4.1914-21.578-12.398-29.816-8.2656-8.2656-19.129-12.426-29.961-12.426s-21.699 4.1328-29.961 12.426c-0.14844 0.14844-0.29688 0.32422-0.44141 0.47266-1.8594 1.918-3.4844 3.957-4.9297 6.082-0.17578 0.26562-0.35547 0.53125-0.53125 0.79688-2.4219-0.5-4.8711-0.73828-7.3203-0.73828-9.3594 0-18.715 3.543-25.832 10.656l-0.11719 0.17578v-36.988h376.09v42.895c0 11.926-4.457 22.699-11.633 30.465-7.0273 7.5859-16.68 12.309-27.305 12.309h-196.98c-1.7695-3.4531-4.043-6.582-6.7617-9.3008-6.4648-6.4648-15.32-10.539-25.094-10.715 2.125-5.1641 3.1875-10.656 3.1875-16.148zm-55.941-8.0312h38.434c-1.2383-3.7773-3.3672-7.3516-6.375-10.332-5.1055-5.1055-11.836-7.6758-18.539-7.6758-6.6992 0-13.43 2.5664-18.539 7.6758-0.11719 0.11719-0.23438 0.23438-0.38281 0.35547-0.73828 0.76562-1.418 1.5664-2.0352 2.3633 1.2383 0.94531 2.4492 2.0078 3.5703 3.1289l0.03125 0.03125c1.4766 1.418 2.7148 2.8945 3.8359 4.457zm156.84-240.86h-48.68v32.355c0 4.457-3.6328 8.0898-8.0898 8.0898h-32.355v48.707h32.355c4.457 0 8.0898 3.6328 8.0898 8.0898v32.355h48.68v-32.355c0-4.457 3.6328-8.0898 8.0898-8.0898h32.355v-48.707h-32.383c-4.457 0-8.0898-3.6328-8.0898-8.0898zm-56.797-16.148h64.855c4.457 0 8.0898 3.6328 8.0898 8.0898v32.355h32.355c4.457 0 8.0898 3.6328 8.0898 8.0898v64.855c0 4.457-3.6328 8.0898-8.0898 8.0898h-32.355v32.355c0 4.457-3.6328 8.0898-8.0898 8.0898h-64.855c-4.457 0-8.0898-3.6328-8.0898-8.0898v-32.355l-32.355-0.03125c-4.457 0-8.0898-3.6328-8.0898-8.0898v-64.855c0-4.457 3.6328-8.0898 8.0898-8.0898h32.355v-32.355c0.03125-4.457 3.6328-8.0586 8.0898-8.0586zm-132.84-11.07c-4.457 0-8.0898-3.6328-8.0898-8.0898s3.6328-8.0898 8.0898-8.0898h70.109c4.457 0 8.0898 3.6328 8.0898 8.0898s-3.6328 8.0898-8.0898 8.0898zm0 26.539c-4.457 0-8.0898-3.6328-8.0898-8.0898 0-4.457 3.6328-8.0898 8.0898-8.0898h70.109c4.457 0 8.0898 3.6328 8.0898 8.0898 0 4.457-3.6328 8.0898-8.0898 8.0898zm418.51-103.91c-13.902-13.902-33.094-22.496-54.289-22.496-21.195 0-40.414 8.5898-54.289 22.496-10.422 10.422-17.859 23.824-20.93 38.82-1.0352 4.9883-1.5664 10.184-1.5664 15.469 0 21.195 8.5898 40.414 22.496 54.289 13.902 13.902 33.094 22.496 54.289 22.496 21.195 0 40.414-8.5898 54.289-22.496 13.902-13.902 22.496-33.094 22.496-54.289 0-21.168-8.5898-40.383-22.496-54.289zm-143.79 29.137h-297.47v-22.348c0-21.902 8.2344-41.77 21.492-56.117 13.105-14.199 31.172-22.996 51.012-22.996h231.08c14.168 0 27.395 4.4883 38.582 12.191 8.9727 6.1992 16.648 14.465 22.406 24.207-16.648 4.1328-31.559 12.754-43.305 24.5-11.129 11.102-19.426 25.004-23.793 40.562zm78.609 117.49v141.34h-376.09v-242.68h294.46c-0.29688 2.9805-0.44141 5.9648-0.44141 9.0039 0 25.684 10.391 48.914 27.219 65.742 14.406 14.406 33.535 24.117 54.848 26.598zm31.645-81.035-0.91406-1.7695-1.1523 2.2422v0.03125l-9.918 19.129c-0.91406 1.7422-2.4219 3.1602-4.4297 3.8984-4.1914 1.5039-8.7969-0.64844-10.332-4.8398l-11.277-30.938-3.0391 10.715c-0.76562 3.6602-4.0156 6.4062-7.9102 6.4062h-30.434c-4.457 0-8.0898-3.6328-8.0898-8.0898s3.6328-8.0898 8.0898-8.0898h24.324l8.2656-29.371c1.2109-4.2812 5.668-6.7891 9.9492-5.5781 2.7148 0.76562 4.6953 2.8047 5.5195 5.3125l13.461 36.898 9.8008-18.895c0.17578-0.38281 0.41406-0.73828 0.64844-1.0625l0.11719-0.14844 0.03125-0.03125 0.089844-0.11719 0.03125-0.03125 0.089844-0.11719 0.03125-0.058593 0.14844-0.14844 0.058594-0.089843 0.47266-0.47266 0.089844-0.058593 0.14844-0.14844 0.058594-0.03125 0.11719-0.089844 0.14844-0.14844 0.14844-0.11719c0.32422-0.23438 0.67969-0.44141 1.0625-0.64844l0.14844-0.089844h0.058594l0.17578-0.089844h0.03125l0.14844-0.058594h0.03125c0.97266-0.41406 1.9766-0.62109 3.0117-0.64844h0.35547c1.0039 0.03125 2.0352 0.23438 3.0117 0.64844h0.03125l0.14844 0.058594-0.11719 0.03125 0.17578 0.089844h0.03125l0.17578 0.089844c0.35547 0.17578 0.70703 0.41406 1.0352 0.64844l0.14844 0.11719 0.03125 0.03125 0.14844 0.11719 0.03125 0.03125 0.11719 0.089844 0.058594 0.03125 0.14844 0.14844 0.089843 0.058593 0.23438 0.23438 0.058594 0.089844 0.14844 0.14844 0.058593 0.089843 0.14844 0.14844 0.03125 0.058593 0.089843 0.11719 0.03125 0.03125 0.089844 0.11719 0.03125 0.03125 0.11719 0.14844c0.23438 0.32422 0.47266 0.70703 0.64844 1.0625l6.0508 11.66h25.535c4.457 0 8.0898 3.6328 8.0898 8.0898s-3.6328 8.0898-8.0898 8.0898h-30.434c-3.3359-0.089844-6.1992-2.0977-7.4375-4.9609zm-396.19 286.85c3.957-3.957 9.1797-5.9336 14.406-5.9336 5.2266 0 10.449 1.9766 14.406 5.9336 3.957 3.957 5.9336 9.1797 5.9336 14.406 0 5.2266-1.9766 10.449-5.9336 14.406l-16 16-28.812-28.812z" fill-rule="evenodd"/>
</svg>
