<?xml version="1.0" encoding="UTF-8"?>
<svg width="1200pt" height="1200pt" version="1.1" viewBox="0 0 1200 1200" xmlns="http://www.w3.org/2000/svg">
 <path class="bg-circle" d="m1200 600c0 214.36-114.36 412.44-300 519.62-185.64 107.18-414.36 107.18-600 0-185.64-107.18-300-305.26-300-519.62s114.36-412.44 300-519.62c185.64-107.18 414.36-107.18 600 0 185.64 107.18 300 305.26 300 519.62z" fill="#a8aaad"/>
 <path class="icon" d="m675.27 238.4c46.438 0 84.082 37.648 84.082 84.082 0 31.961-17.93 60.32-45.199 74.57 62.902 17.336 108.31 75.086 108.31 141.95 0 7.6016 0.28906 47.172-0.17969 51.398v20.914c0 21.27-15.586 39.234-36.23 42.57v24.93c0 4.0742-3.3047 7.3789-7.3789 7.3789h-93.574c-5.5469 3.9336-12.312 6.25-19.609 6.25l-93.922 0.003906c-23.762 0-43.125-19.363-43.125-43.125v-19.113l-0.37109-6.7383v-84.469c0-66.566 45.121-124.54 108.31-141.95-50.148-26.203-60.832-93.766-20.57-134.03 15.215-15.215 36.234-24.625 59.453-24.625zm-171.07 101.07c-30.586-30.586-76.754 15.441-46.098 46.098l45.633 45.633c2.8828 2.8828 7.5547 2.8828 10.434 0l45.633-45.633c10.785-10.789 11.656-23.91 6.9297-34.809-8.5078-19.621-34.418-29.898-53.027-11.289l-4.7539 4.7539zm-0.46484 20.406-9.9688-9.9688c-16.82-16.82-42.133 8.3203-25.227 25.227l40.414 40.414 40.414-40.414c16.074-16.074-8.6328-41.816-25.227-25.227l-9.9727 9.9727c-2.8789 2.8789-7.5547 2.8789-10.434-0.003906zm320.42-4.6289c-3.9023-7.6328-13.297-9.8594-20.102-5.6758-7.0195 4.3203-5.5547 12.625-18.723 19.613-7.3477 3.9023-9.6484 13.16-5.4727 19.98 4.2773 6.9883 12.285 5.5352 19.145 18.598 3.8477 7.3242 12.828 9.6367 19.656 5.7148 7.0938-4.0781 5.5273-11.582 19.75-18.566 7.7695-3.8164 10.145-13.262 5.8555-20.215-4.4688-7.2422-13-5.5352-20.109-19.449zm-4.3555 18.746c-3.2539-3.2266-6.0117-6.9531-8.2734-11.184-4.2773 8.0586-10.449 14.496-18.418 18.938 7.918 4.2969 14.152 10.457 18.477 18.332 4.668-7.8984 11.27-13.711 19.43-17.898-4.1953-2.207-7.9375-4.9375-11.215-8.1875zm-469.25 447.7c19.301 0 29.039 23.449 15.375 37.117-13.668 13.668-37.117 3.9258-37.117-15.371 0-12.012 9.7383-21.746 21.742-21.746zm4.9375 16.805c-4.3828-4.3828-11.922-1.2695-11.922 4.9375 0 9.1914 13.965 9.1914 13.965 0 0.003906-1.9297-0.77734-3.6758-2.043-4.9375zm-15.66-53.461c-3.5195-2.0352-8.0234-0.83594-10.059 2.6797l-36.789 63.719 0.011719 0.007812c-2.0352 3.4609-0.84766 8.0117 2.6953 10.055l171.71 99.141c3.5195 2.0234 8.0117 0.80859 10.031-2.7109l36.555-63.312c2.3477-3.7891 1.1641-8.3516-2.4453-10.438l-8.3281-4.8086c6.0312-4.7422 15.484-10.727 22.32-11.133l141-1.4375c1.0742 0.0625 2.1797-0.11328 3.2422-0.55469l219.45-91.73c5.7109-2.3867 9.9219-6.6445 12.246-12.398 5.4023-13.379 7.4648-24.375 6.1797-32.98-3.3398-22.379-26.156-24.875-47.043-21.762v0.003906l-105.89 34.508c-3.4492-17.297-11.926-32.363-29.996-33.844v0.019532c-0.41406-0.03125-0.83984-0.03125-1.2695 0.011718l-147.5 14.379c-43.348-17.617-83.367-19.445-120.04-6.5195-36.059 12.711-68.566 39.648-97.527 79.816zm31.367 18.109 118.41 68.367c9.9883-8.6328 22.324-16.738 34.777-17.945v0.003906c0.21094-0.019531 0.42188-0.03125 0.63281-0.03125l140.38-1.4336 218.17-91.195c2.0742-0.86719 3.3945-2.2031 4.2305-4.2734 4.4102-10.914 8.0352-24.48 3.1836-30.68-1.0469-1.3359-2.5625-2.4062-4.5547-3.207-5.1094-2.0664-12.812-2.3555-23.102-0.875l-112.07 36.637c-0.19922 0.074219-0.40625 0.13672-0.61328 0.19141l-130.74 35.031c-9.3672 2.5078-13.184-11.73-3.8047-14.242l124.43-33.34c-1.2852-7.2188-3.2656-12.797-5.9453-16.742-2.6719-3.9258-6.1836-6.1328-10.543-6.625l-148.09 14.438c-1.293 0.20312-2.6602 0.0625-3.9609-0.47656-40.484-16.805-77.543-18.785-111.19-6.9258-32.789 11.562-62.664 36.312-89.602 73.324zm126.61 90.102-158.97-91.785-29.434 50.977 158.97 91.785zm309.91-317.62v-36.625c0-72.824-59.609-132.43-132.43-132.43-36.41 0-69.52 14.902-93.527 38.91-21.812 21.809-36.102 51.129-38.535 83.617v120.23c0 15.613 12.75 28.363 28.363 28.363h93.922c10.551 0 19.219-8.6172 19.219-19.219 0-7.7891 0.64844-13.934-5.6445-20.223-3.2656-3.2656-7.6953-5.3711-12.59-5.6211l-21.516 12.402c-12.988 7.3477-27.781 8.7969-41.203 5.1992-29.324-7.8555-46.66-37.859-38.801-67.191 3.6367-13.578 12.449-25.789 25.559-33.355l16.488-9.5195v-22.164c0-9.7148 14.762-9.7148 14.762 0v13.645l23.863-13.777-0.007813-0.011719c18.051-10.422 39.715-9.3438 56.371 0.91406 3.2344-38.297 50.121-55.684 77.508-28.297 23.773 23.773 14.309 64.059-17.062 75.102v13.328c0 8.6484-7.0703 15.695-15.695 15.695h-17.812c-4.9531 0-9.4805 1.8945-12.895 4.9961-6.9961 7.4766-6.3242 11.207-6.3242 20.871 0 10.578 8.6445 19.219 19.219 19.219h50.23c15.613 0 28.363-12.75 28.363-28.363-0.003906-4.457-0.24219-33.82 0.17969-35.691zm-60.031-7.4922c-7.0742 0.042969-13.715-1.4844-19.73-4.3203 0.14844 5.4727-0.52734 10.91-1.9648 16.145 3.5664-0.30859 20.73 0.1875 21.301-0.28906l0.39062-0.77344zm-52.727 48.051-11.637 6.7188c9.8164 6.0742 16.16 16.867 16.16 28.918 0 7.4258 0.39453 12.453-2.5781 19.617h74.398v-17h-42.367c-18.723 0-33.98-15.258-33.98-33.98zm6.4375-22.246 3.8516-4.457c3.0625-4.125 5.2852-8.7852 6.6055-13.691 2.8477-10.633 1.418-21.18-4.3438-31.145-11.238-18.629-35.586-24.973-54.496-14.055l-0.007812-0.011719-55.156 31.844c-9.5391 5.5078-15.969 14.449-18.641 24.418-5.7656 21.52 6.8398 43.375 28.363 49.145 9.9922 2.6758 20.934 1.5703 30.477-3.9453l55.133-31.832 0.007813 0.011719c3.1602-1.8594 5.707-3.7891 8.207-6.2812zm67.68-93.039c-19.312-19.312-52.477-5.5703-52.477 21.738 0 26.996 32.977 41.234 52.477 21.738 12-12.008 12-31.473 0-43.477zm-44.777-227.44c-27.07-27.07-70.969-27.07-98.039 0-27.07 27.07-27.07 70.969 0 98.039 27.07 27.07 70.969 27.07 98.039 0 27.074-27.07 27.074-70.969 0-98.039z" fill-rule="evenodd"/>
</svg>
