<?xml version="1.0" encoding="UTF-8"?>
<svg width="1200pt" height="1200pt" version="1.1" viewBox="0 0 1200 1200" xmlns="http://www.w3.org/2000/svg">
 <path d="m1200 600c0 214.36-114.36 412.44-300 519.62-185.64 107.18-414.36 107.18-600 0-185.64-107.18-300-305.26-300-519.62s114.36-412.44 300-519.62c185.64-107.18 414.36-107.18 600 0 185.64 107.18 300 305.26 300 519.62z" fill="#a8aaad"/>
 <path d="m428.85 534.7c0-12.637 10.363-23.055 23.055-23.055h17.152c1.3008 3.8672 3.0117 7.7031 5.2266 11.336-13.758 5.5195-23.5 18.98-23.5 34.598-12.191-0.5-21.934-10.625-21.934-22.879zm271.59-93.996v61.758l31.352 31.352c8.9141 8.9141 23.586 8.9141 32.562 0 8.9141-8.9141 9.1523-23.793 0-32.562l-63.941-61.137c0.03125 0.20703 0.03125 0.41406 0.03125 0.58984zm-71.703 84.926-40.266-34.449c18.301 1.3008 35.363-2.6562 51.602-10.215v76.781c0 12.637 10.363 23.055 23.055 23.055 12.637 0 23.055-10.363 23.055-23.055l-0.03125-117.05c0-12.84-6.1992-23.883-17.152-30.613-62.789-38.316-157.4-10.746-180.69 44.574-26.688 63.262 20.25 80.031 20.25 80.031h-20.398c-12.695 0-23.055 10.363-23.055 23.055 0 12.637 10.363 23.055 23.055 23.055h121.98c29.254-0.089843 39.762-37.047 18.598-55.172zm72.324-117.58c26.598 0 48.148-21.551 48.148-48.148 0-26.598-21.551-48.148-48.148-48.148s-48.148 21.551-48.148 48.148c0 26.598 21.551 48.148 48.148 48.148zm136.56 145.3c-11.57 24.707-26.301 56.973-38.316 80.469 2.8633 3.3945 5.3711 8.7695 6.9648 12.84 13.227 34.094-34.773 78.051-59.336 100.58-3.1016 2.8047-5.8164 5.2852-7.5586 7.0273-3.7773 3.6328-9.832 3.543-13.461-0.23438-3.6328-3.7773-3.543-9.832 0.23438-13.461 2.332-2.2734 4.8984-4.6055 7.8516-7.3203 17.832-16.324 76.691-64.531 46.699-90.453-10.566-9.1523-25.238-7.9414-42.922 9.4453-28.102 27.57-55.379 50.48-86.461 75.57-44.664 38.848-42.539 105.65-39.824 160.36h120.23c6.1992-60.223 26.895-69.609 54.109-97.652 12.637-12.988 29.637-25.094 41.801-57.062 21.461-57.211 42.863-114.42 64.324-171.63 4.7539-13.758 9.3008-30.316 10.125-38.23-9.3281-22.969-38.699-25.328-64.473 29.758zm-289.06 174.52c-30.996-25.094-58.273-48-86.461-75.57-17.684-17.301-32.355-18.508-42.922-9.4453-29.992 25.918 28.871 74.066 46.699 90.453 2.9531 2.7148 5.5195 5.0781 7.8516 7.3203 3.7773 3.6328 3.9258 9.6836 0.23438 13.461-3.6328 3.7773-9.6836 3.9258-13.461 0.23438-1.8008-1.7422-4.457-4.1641-7.5586-7.0273-24.562-22.523-72.562-66.566-59.336-100.58 1.5938-4.0742 4.0742-9.4453 6.9648-12.84-12.016-23.438-26.746-55.762-38.316-80.469-25.77-55.086-55.172-52.754-64.68-29.785 0.82813 7.9414 5.4336 24.473 10.125 38.23 21.461 57.211 42.863 114.42 64.324 171.63 12.164 32.031 29.168 44.043 41.801 57.062 27.129 28.043 47.824 37.402 54.109 97.652h120.23c2.9219-54.699 5.0469-121.5-39.617-160.32z" fill-rule="evenodd"/>
</svg>
