<?xml version="1.0" encoding="UTF-8"?>
<svg width="1200pt" height="1200pt" version="1.1" viewBox="0 0 1200 1200" xmlns="http://www.w3.org/2000/svg">
 <path class="bg-circle" d="m1200 600c0 214.36-114.36 412.44-300 519.62-185.64 107.18-414.36 107.18-600 0-185.64-107.18-300-305.26-300-519.62s114.36-412.44 300-519.62c185.64-107.18 414.36-107.18 600 0 185.64 107.18 300 305.26 300 519.62z" fill="#a8aaad"/>
 <path class="icon" d="m878.11 343.06c-39.297-38.543-91.441-60.457-146.61-60.457-47.609 0-94.465 15.871-131.5 46.098-89.93-72.547-221.43-58.945-293.97 30.984-53.652 66.504-61.211 160.21-18.891 234.27h101.27l105.04-182.13 68.77 208.58 77.082-136.79 64.992 111.09h61.969c12.848 0 22.672 9.8242 22.672 22.672 0 12.848-9.8242 22.672-22.672 22.672h-87.66l-38.543-64.992-89.176 156.43-69.527-209.33-67.258 117.14-92.195-0.003906 278.1 278.11 279.61-279.61c80.863-81.617 80.109-213.87-1.5078-294.73z"/>
</svg>
