<?xml version="1.0" encoding="UTF-8"?>
<svg width="1200pt" height="1200pt" version="1.1" viewBox="0 0 1200 1200" xmlns="http://www.w3.org/2000/svg">
 <path class="bg-circle" d="m1200 600c0 214.36-114.36 412.44-300 519.62-185.64 107.18-414.36 107.18-600 0-185.64-107.18-300-305.26-300-519.62s114.36-412.44 300-519.62c185.64-107.18 414.36-107.18 600 0 185.64 107.18 300 305.26 300 519.62z" fill="#a8aaad"/>
 <path class="icon" d="m907.01 533.88c-23.617 4.4883-45.344 31.762-66.242 83.484h-0.003906c-2.9258-1.0586-5.9844-1.6953-9.0898-1.8906-17.504 1.8516-34.539 6.8125-50.301 14.645 52.184-48.637 86.109-113.7 96.117-184.32 8.1445-73.684-19.367-135.2-73.566-164.61-32.809-20.02-72.477-25.453-109.46-14.996-49.355 14.996-79.82 57.625-89.977 74.039-10.273-16.648-40.738-59.039-90.449-74.273-36.906-10.285-76.426-4.7656-109.11 15.23-56.68 30.703-85.254 94.465-76.516 170.39 9.9219 69.816 44.121 133.9 96.59 181.02l-6.6133-2.4805c-15.742-7.8867-32.785-12.848-50.301-14.645-3.1055 0.19531-6.168 0.83203-9.0938 1.8906-21.02-51.719-42.391-78.996-66.008-83.484-11.688-2.332-23.734 1.7148-31.645 10.629-19.129 20.074 44.398 165.31 49.121 171.81 10.98 14.996 107.81 71.676 158.94 100.96l-35.426 106.86c-1.1016 3.4766-0.53516 7.2695 1.5352 10.273 2.1797 2.9844 5.6328 4.7773 9.3281 4.8398h146.66c3.1562-0.011719 6.1758-1.2891 8.3828-3.543 2.2109 2.2539 5.2305 3.5312 8.3828 3.543h147.25c3.6992-0.0625 7.1484-1.8555 9.332-4.8398 2.0703-3.0039 2.6367-6.7969 1.5312-10.273l-35.426-106.86c51.129-29.285 147.95-85.961 158.94-100.96 4.7227-6.4961 68.25-151.26 49.477-171.81-3.9531-4.5-9.0352-7.8555-14.727-9.7266-5.6875-1.8672-11.777-2.1797-17.625-0.90234zm-470.2-46.402c8.0938-4.1641 17.48-5.0547 26.211-2.4805-2.1836 7.457-3.7617 15.078-4.7227 22.789-0.91406 6.5312-1.3477 13.121-1.2969 19.719-0.023437 5.207 0.25391 10.41 0.82422 15.586 1.0273 9.7461 3.0469 19.359 6.0234 28.695-10.824-3.3711-20.496-9.6836-27.938-18.234-7.4453-8.5469-12.367-18.996-14.219-30.18-1.7383-6.8125-1.2031-14.008 1.5234-20.488 2.7305-6.4805 7.5039-11.891 13.594-15.406zm332.52 0h-0.003906c6.0938 3.3984 10.902 8.707 13.676 15.109 2.7734 6.4023 3.3633 13.543 1.6758 20.312-1.8047 11.145-6.6523 21.574-14.008 30.137s-16.93 14.93-27.676 18.395c3.0742-9.3945 5.1328-19.094 6.1406-28.93 0.57422-5.0156 0.84766-10.062 0.82812-15.113 0.011718-6.7188-0.46484-13.426-1.418-20.074-1.0352-7.6406-2.6953-15.184-4.9609-22.555 8.6172-2.3711 17.812-1.4023 25.742 2.7188zm-195.78-36.488c7.5547 10.156 19.348 16.293 32 16.648 3.6406 0.042969 7.2539-0.64062 10.629-2.0078 3.1914-1.4414 5.5742-4.2305 6.5078-7.6055 0.9375-3.375 0.32422-6.9883-1.668-9.8711-1.6133-2.2188-2.8516-4.6953-3.6602-7.3203 1.3477-0.40625 2.7305-0.68359 4.1328-0.82422 5.0977-1.8672 8.2656-6.9688 7.6797-12.367-0.58984-5.3945-4.7812-9.6953-10.16-10.422-4.7734 0-9.4492 1.3359-13.5 3.8633-4.0469 2.5234-7.3086 6.1367-9.4062 10.422-1.1055 2.6172-1.668 5.4297-1.6523 8.2656-1.1523-1.0156-2.2188-2.1211-3.1875-3.3047-2.0078-2.3633-1.7695-3.7773-1.6523-4.25 0.58984-3.7773 6.1406-8.8555 10.035-11.219 5.2188-3.3359 6.9727-10.145 4.0156-15.586l-1.418-1.6523h1.0625c28.875 0.027344 56.832 10.145 79.039 28.602 22.207 18.457 37.27 44.09 42.582 72.473 1.3242 7.3281 1.9961 14.754 2.0078 22.199 0.003906 9.7461-1.1445 19.457-3.4219 28.93-0.36328 1.6445-0.83984 3.2617-1.418 4.8438-10.023 35.043-34.992 63.887-68.238 78.832-33.246 14.949-71.391 14.477-104.25-1.2891-32.867-15.762-57.113-45.215-66.266-80.496-2.5273-9.918-3.7969-20.113-3.7812-30.348 0.10938-7.3789 0.90234-14.73 2.3633-21.961 4.5469-24.902 16.598-47.816 34.535-65.672 17.941-17.855 40.91-29.797 65.832-34.227-7.4453 5.5977-12.707 13.613-14.879 22.672-1.5117 8.0977 0.75 16.445 6.1406 22.672zm-244.54 251.75c-11.809-15.703-49.828-123.51-49.594-144.29 2.5469-1.8633 5.7383-2.6289 8.8555-2.125 7.4375 1.418 27.16 11.809 52.547 77.578-1.0312 1.7773-1.8242 3.6836-2.3633 5.668-1.7695 4.9648-1.9336 10.359-0.47266 15.422 1.4609 5.0664 4.4766 9.543 8.6211 12.801 9.5664 6.6133 73.211 41.445 80.531 45.461 5.2812 1.4414 10.863-0.94141 13.48-5.75 2.6172-4.8125 1.582-10.793-2.5-14.441-28.102-15.23-72.027-39.559-77.695-43.219-0.46875-2.418 0.042969-4.9219 1.4141-6.9688 0.39844-0.57812 0.83203-1.1289 1.3008-1.6523 1.6211-1.7461 3.875-2.7695 6.2578-2.832 13.953 2.6094 27.523 6.9766 40.383 12.988 21.707 9.4102 44.293 16.648 67.426 21.609 12.941 8.2031 26.344 15.656 40.145 22.316 17.887 20.035 32.98 42.398 44.871 66.48v45.695h-63.879c-77.582-43.926-161.42-94.82-169.33-104.74zm274.18 115.48-3.1914 56.441-3.1875-56.441c-0.55078-6.1055-5.6797-10.77-11.809-10.746v-48.293c-0.050781-1.7539-0.45312-3.4805-1.1797-5.0781-7.043-14.008-14.93-27.57-23.617-40.621 11.098 4.0156 22.789 7.6758 34.715 10.98h0.003906c1.0156 0.16406 2.0508 0.16406 3.0703 0h12.633c1.0156 0.17969 2.0547 0.17969 3.0703 0 8.0312-2.2422 15.824-4.6055 23.617-7.4375-7.7266 11.98-14.82 24.355-21.254 37.078-0.72656 1.5977-1.1289 3.3242-1.1836 5.0781v48.293c-6.082 0.035156-11.141 4.6875-11.688 10.746zm268.39-115.48c-8.0312 9.918-91.867 60.812-169.45 104.74h-64.352v-45.695c11.027-21.895 24.578-42.426 40.383-61.168 17.977-8.3047 35.27-18.016 51.719-29.047 20.613-5.125 40.789-11.879 60.34-20.191 12.895-5.9258 26.453-10.285 40.383-12.988 2.3828 0.0625 4.6367 1.0859 6.2578 2.832 0.46875 0.52344 0.90234 1.0742 1.2969 1.6523 0.875 1.9883 1.5859 4.0391 2.1289 6.1406-6.7305 4.7227-50.422 28.93-78.406 44.043v0.003906c-4.082 3.6484-5.1172 9.6289-2.5 14.441 2.6172 4.8086 8.1953 7.1914 13.48 5.75 7.3203-4.0156 70.848-38.848 80.531-45.461 4.1445-3.2578 7.1602-7.7344 8.6211-12.801 1.4609-5.0625 1.2969-10.457-0.47266-15.422-0.53906-1.9844-1.332-3.8906-2.3633-5.668 25.387-65.652 45.105-76.16 52.547-77.578 3.1172-0.50391 6.3047 0.26172 8.8555 2.125 0.23438 20.781-38.023 128.59-49.004 144.29z"/>
 <path d="m631.41 517.34c1.7656 1.1211 3.8164 1.6953 5.9062 1.6562 3.9297-0.085938 7.5586-2.125 9.6797-5.4336 1.4727-2.4102 3.5664-4.3789 6.0547-5.7109 2.4922-1.3281 5.2969-1.9648 8.1172-1.8477 5.2266 0.40234 9.9727 3.1914 12.871 7.5586 3.418 5.2031 10.293 6.8555 15.703 3.7773 5.2734-3.4258 6.9336-10.383 3.7773-15.82-6.9844-10.859-18.754-17.711-31.645-18.422-6.8242-0.21875-13.586 1.3672-19.602 4.6016-6.0117 3.2344-11.062 8.0039-14.641 13.82-3.1523 5.4375-1.4922 12.395 3.7773 15.82z"/>
 <path d="m545.68 559.73c-3.4258-5.2695-10.383-6.9297-15.82-3.7773-5.2031 3.4219-6.8594 10.293-3.7812 15.707 15.105 24.621 41.965 39.574 70.848 39.438h3.0703c27.465-1.5859 52.5-16.254 67.309-39.438 2.668-2.5352 4.0039-6.1719 3.6094-9.8281-0.39453-3.6602-2.4727-6.9297-5.6211-8.8359s-7.0039-2.2383-10.43-0.89453c-3.4297 1.3438-6.0312 4.2109-7.043 7.75-10.953 16.645-29.113 27.148-49.004 28.34-10.578 0.36719-21.07-2.0742-30.402-7.0703-9.332-5-17.176-12.379-22.734-21.391z"/>
 <path d="m534.59 483.46c-12.969 0.66016-24.809 7.5742-31.766 18.539-2.8555 5.3281-1.2227 11.953 3.7812 15.348 5.4062 3.1797 12.355 1.5703 15.82-3.6602 2.8359-4.375 7.5547-7.1719 12.754-7.5547 5.7227-0.14453 11.102 2.7227 14.168 7.5547 2.125 3.3125 5.7539 5.3477 9.6836 5.4336 1.9805-0.0625 3.9023-0.67578 5.5508-1.7734 5.3125-3.3867 7.0273-10.352 3.8945-15.82-7.3359-11.559-20.203-18.418-33.887-18.066z"/>
</svg>
