<?xml version="1.0" encoding="UTF-8"?>
<svg width="1200pt" height="1200pt" version="1.1" viewBox="0 0 1200 1200" xmlns="http://www.w3.org/2000/svg">
 <path d="m1200 600c0 214.36-114.36 412.44-300 519.62-185.64 107.18-414.36 107.18-600 0-185.64-107.18-300-305.26-300-519.62s114.36-412.44 300-519.62c185.64-107.18 414.36-107.18 600 0 185.64 107.18 300 305.26 300 519.62z" fill="#a8aaad"/>
 <path d="m566.7 326.77c-74.656-2.8945-81.828 106.36-7.3516 113.09 74.625 2.9219 81.859-106.36 7.3516-113.09z"/>
 <path d="m428.64 656.23-44.102 175.55c-2.5977 10.094-0.38281 20.605 6.0508 28.812 16.059 21.844 53.371 13.699 58.688-13.02l32.887-142.52c1.1523-6.1094 9.625-8.3242 13.637-3.6016 9.3281 23.734 38.496 72.797 36.664 98.953 1.1211 26.215-7.8516 71.559 31.559 72.707 42.922-0.88672 29.168-57.062 31.586-84.195 3.0391-31.352-31.586-86.316-43.012-114.3-7.3203-0.58984 18.953-112.35 18.242-116.22 14.051 9.832 55.762 53.312 73.504 54.699l32.473 6.3164c-22.641 10.922-39.352 31.941-43.039 57.152l-25.535 174.82c-1.7109 10.449 6.5547 20.605 17.031 21.727 10.863 1.418 20.898-5.9023 22.438-16.355l13.902-95.234h101.46l13.934 95.234c3.6914 24.68 42.863 19.836 39.438-5.3711l-25.535-174.82c-4.7812-32.59-31.23-58.156-64.176-64 14.762-17.27 4.5156-46.109-18.008-49.949-10.746-2.5664-30.641-3.7773-38.789-12.223-7.2617-4.9609-32.414-28.871-58.008-51.543-25.801-22.848-52.074-44.457-60.988-44.133-115.96-16.797-101.37 129.62-122.3 201.5zm280.71-33.031c34.332-1.5352 65.152 22.73 69.758 55.113l25.535 174.82c0.26562 1.832-0.20703 3.6914-1.3594 5.1953-3.8672 5.4922-13.965 3.3672-14.73-3.2461l-14.641-100.29c-0.41406-2.8945-2.8945-5.0469-5.8438-5.0469h-111.67c-2.9219 0-5.4336 2.125-5.8438 5.0469l-14.641 100.29c-1.0938 9.3281-17.477 7.9102-16.09-1.9492l25.535-174.82c4.3086-30.82 32.5-53.816 64-55.113z"/>
 <path d="m654.44 728.18c-0.58984 3.4258 2.3633 6.8477 5.8438 6.7617h103.88c3.4844 0.058594 6.4336-3.3047 5.8438-6.7617l-6.9961-47.883c-7.6172-55.352-93.934-55.379-101.57 0 0.03125 0-6.9961 47.883-6.9961 47.883zm57.801-78.344c42.094 0.47266 40.414 43.395 45.105 73.297h-90.219c4.7227-29.961 2.9531-72.797 45.105-73.297z"/>
</svg>
