<?xml version="1.0" encoding="UTF-8"?>
<svg width="1200pt" height="1200pt" version="1.1" viewBox="0 0 1200 1200" xmlns="http://www.w3.org/2000/svg">
 <path d="m1200 600c0 214.36-114.36 412.44-300 519.62-185.64 107.18-414.36 107.18-600 0-185.64-107.18-300-305.26-300-519.62s114.36-412.44 300-519.62c185.64-107.18 414.36-107.18 600 0 185.64 107.18 300 305.26 300 519.62z" fill="#a8aaad"/>
 <path d="m902.46 792.03-60.871 72c-3.6328 4.3086-7.5586 6.1992-9.8008 6.1094-0.82812-0.03125-1.0352-0.29688-1.1797-0.44141l-29.195-37.816c-5.4922-7.2305-3.3359-14.582-2.125-17.418 1.8906-4.457 5.3711-7.7344 8.707-8.1758 0.23438-0.03125 0.47266-0.058594 0.70703-0.058594 2.3008 0 4.5469 1.418 6.6992 4.2812l16.09 20.637c1.0039 1.3008 2.5391 2.0664 4.1914 2.125 1.6523 0.058594 3.2188-0.64844 4.3086-1.918l50.625-58.715c0.058593-0.058594 0.089843-0.089844 0.14844-0.14844 3.1016-3.8984 6.2578-4.5156 9.5938-1.8594 4.7539 3.8086 8.2344 13.551 2.0977 21.371zm41.445-158.88-26.449 11.039 26.422 10.953c0.32422 0.14844 0.64844 0.29688 0.97266 0.5 1.5352 1.0039 2.4492 2.7461 2.4492 4.5742v59.66c0 2.2148-1.3281 4.2227-3.3945 5.0781l-8.707 3.6016c2.8633 8.5625 4.9297 17.949 6.1406 27.984 7.7617 65.859-25.062 141.55-73.152 168.68-11.836 6.6719-23.941 10.066-35.602 10.066-9.0039 0-17.684-2.0078-25.801-6.0508l-23.793-9.5352c-9.1523-3.6602-17.328-9.9766-23.645-18.242-13.727-18.035-20.426-30.996-23.852-60.016-1.1523-9.7695-1.3867-19.777-0.82812-29.816l-182.38 75.543c-0.67969 0.29688-1.3867 0.41406-2.0977 0.41406-0.70703 0-1.418-0.14844-2.0977-0.41406l-268.34-110.94c-25.094-10.449-31.262-35.453-24.355-53.668 3.1289-8.2656 8.5-13.902 14.82-16.234l31.586-12.754-22.051-9.1211c-25.094-10.449-31.262-35.453-24.355-53.668 3.1289-8.2656 8.5-13.902 14.789-16.207l105.3-42.566c-0.23438-1.3281-0.35547-2.6562-0.35547-3.957v-76.934l-115.42-47.824c-2.0664-0.85547-3.3945-2.8633-3.3945-5.0781v-32.414c0-1.832 0.91406-3.543 2.4492-4.5742 0.29688-0.20703 0.94531-0.5 0.94531-0.5l327.23-135.58c1.3594-0.5625 2.8633-0.5625 4.1914 0l349.22 144.65c0.32422 0.14844 0.64844 0.29688 0.94531 0.5 1.5352 1.0039 2.4492 2.7461 2.4492 4.5742v32.414c0 2.2148-1.3281 4.2227-3.3945 5.0781l-115.42 47.824v13.965l118.96 49.18s0.64844 0.29687 0.94531 0.5c1.5352 1.0039 2.4492 2.7461 2.4492 4.5742v59.66c0 2.2148-1.3281 4.2227-3.3672 5.0781zm-119-107.13v41.977c0 19.012-24.707 39.379-67.809 55.852-44.957 17.211-100.75 26.688-157.11 26.688-53.992 0-107.34-8.6797-151.2-24.5v19.809c8.1758 5.5508 13.551 14.938 13.551 25.535 0 5.5781-1.5039 10.805-4.1016 15.32l91.895 37.992 377.27-156.28-102.49-42.363zm-413.25 145.36c0 10.953 8.9141 19.867 19.867 19.867 10.953 0 19.867-8.9141 19.867-19.867s-8.9141-19.867-19.867-19.867c-10.953 0-19.867 8.9141-19.867 19.867zm11.395-29.668c2.6875-0.76563 5.5195-1.1797 8.4727-1.1797 2.1562 0 4.2812 0.23438 6.3164 0.64844v-160.2c0-2.2422 1.3594-4.25 3.4531-5.1055l131.63-53.137c-3.0117-1.5664-5.5508-3.3672-7.5859-5.4023l-142.23 56.68v167.68zm182.44-67.098v-20.516l-156.69-64.914v20.516zm-5.4609-180.58c-17.684 0-28.957 6.9375-28.957 11.75 0 4.7812 11.277 11.75 28.957 11.75 17.684 0 28.957-6.9375 28.957-11.75 0-4.7812-11.277-11.75-28.957-11.75zm-157.63 306.18c-3.3945 1.2695-7.0547 1.9766-10.863 1.9766-3.7188 0-7.293-0.64844-10.566-1.8594l-7.4688 89.445c0.26562 2.7461 7.7344 7.5859 19.867 7.5859 12.016 0 19.484-4.7539 19.836-7.5273l-10.773-89.621zm490.36-277.14-316.28 131.01v20.516l316.28-131.01zm-520.7 71.41v-20.516l-144.79-59.984v20.516zm-120.53 123.25 110.23 45.578c1.7109-6.3164 5.3711-11.836 10.332-15.852v-37.785c-15.969-8.9141-26.953-18.215-32.562-27.453l-87.973 35.543zm0 91.781 113.71 47.027 1.625-19.543-90.594-37.461-24.738 10.008zm465.09 21.43c5.1055-9.918 10.953-19.129 17.445-27.426l-221.82 91.836c-0.67969 0.29688-1.3867 0.41406-2.0977 0.41406-0.70703 0-1.418-0.14844-2.0977-0.41406l-87.496-36.164 2.5664 21.285 87.059 35.984zm24.59 175.64c-9.8008-14.023-16.383-32.473-18.922-53.902-7.7617-65.859 25.062-141.55 73.152-168.68 6.9648-3.9258 14.023-6.6992 21.02-8.3242l-2.6562-1.0352c-12.516-2.5977-26.273 0.058594-39.793 7.6758-44.574 25.18-74.922 95.969-67.629 157.85 3.1289 26.625 8.9727 37.934 21.699 54.641 3.6914 4.8398 8.1758 8.8555 13.137 11.809zm68.781-35.453 60.957-72.09 0.11719-0.14844c9.832-12.398 5.9648-29.078-3.8359-36.84-6.7305-5.3438-17.031-6.3164-24.945 3.5117l-46.199 53.551-11.926-15.293c-4.7539-6.2578-10.98-9.2383-17.504-8.4141-7.3203 0.91406-14.023 6.582-17.477 14.789-4.0156 9.5352-2.7148 20.133 3.5117 28.367l29.227 37.844c2.2734 2.9531 5.6992 4.6328 9.625 4.7227h0.32422c6.0508 0 12.781-3.7188 18.094-10.008zm53.164-220.98-39.586 16.5 24.766 9.7422 39.113-16.207z"/>
</svg>
