<?xml version="1.0" encoding="UTF-8"?>
<svg width="1200pt" height="1200pt" version="1.1" viewBox="0 0 1200 1200" xmlns="http://www.w3.org/2000/svg">
 <path class="bg-circle" d="m1200 600c0 214.36-114.36 412.44-300 519.62-185.64 107.18-414.36 107.18-600 0-185.64-107.18-300-305.26-300-519.62s114.36-412.44 300-519.62c185.64-107.18 414.36-107.18 600 0 185.64 107.18 300 305.26 300 519.62z" fill="#a8aaad"/>
 <path class="icon" d="m851.91 379.59c0 34.781-28.195 62.977-62.977 62.977s-62.977-28.195-62.977-62.977 28.195-62.977 62.977-62.977 62.977 28.195 62.977 62.977zm-110.65 416.44c-10.309-18.039-38.668-16.48-52.008-0.55469-28.883 34.469-72.25 56.387-120.74 56.387-86.949 0-157.44-70.488-157.44-157.44 0-48.645 22.059-92.137 56.723-121.02 12.207-10.172 18.445-26.691 12.738-41.52-6.8789-17.883-27.93-25.953-43.312-14.531-54.082 40.168-89.125 104.52-89.125 177.07 0 121.73 98.684 220.42 220.41 220.42 68.73 0 130.11-31.457 170.54-80.758 8.8438-10.789 9.1328-25.938 2.2109-38.051zm-132.94-365.63c-23.203-3.8672-46.625 5.5156-60.734 24.332l-35.746 47.66c-10.434 13.914-7.6172 33.652 6.2969 44.086 13.914 10.434 33.648 7.6133 44.082-6.2969l35.746-47.664 26.609 4.4336-45.016 65.031c-43.375 62.652 1.4648 148.23 77.664 148.23h47.426c11.434 0 21.973 6.1992 27.523 16.195l60.586 109.05c1.5781 2.9102 3.5586 5.4805 5.8438 7.6719 6.8906 6.625 16.453 9.7383 25.852 8.5273 3.4492-0.44531 6.875-1.4688 10.141-3.1172 3.2695-1.6445 6.1328-3.7891 8.5391-6.3008 6.625-6.8867 9.7383-16.453 8.5273-25.852-0.40625-3.1406-1.293-6.2617-2.6914-9.2617l-62.473-137.44c-15.5-34.102-52.457-53.027-89.188-45.684-15.547 3.1094-26.977-14.285-17.953-27.32l72.492-104.71c9.8984-14.297 6.332-33.914-7.9648-43.812-5.5938-3.8711-12-5.6836-18.324-5.5977h-44.227z" fill-rule="evenodd"/>
</svg>
