<?xml version="1.0" encoding="UTF-8"?>
<svg width="1200pt" height="1200pt" version="1.1" viewBox="0 0 1200 1200" xmlns="http://www.w3.org/2000/svg">
 <path class="bg-circle" d="m1200 600c0 214.36-114.36 412.44-300 519.62-185.64 107.18-414.36 107.18-600 0-185.64-107.18-300-305.26-300-519.62s114.36-412.44 300-519.62c185.64-107.18 414.36-107.18 600 0 185.64 107.18 300 305.26 300 519.62z" fill="#a8aaad"/>
 <path class="icon" d="m699.48 598.44c4.9609-8.2969 10.242-16.5 15.852-24.621l-4.6055-9.0938h-7.7031c-0.5625 11.363-1.7695 22.613-3.543 33.684zm-455.11-48.797c0-74.598 29.492-145.3 81.891-197.73 50.598-50.598 120.5-81.891 197.73-81.891 53.934 0 104.38 15.352 147.16 41.891 39.527 24.531 72.5 58.625 95.645 99.035 7.4375-3.2188 15.586-4.8984 24.148-4.8984h17.211c10.332 0 20.043 2.4492 28.695 7.0859 8.5898 4.6055 16 11.395 21.727 20.016 2.7461 4.1328 4.9297 8.4414 6.582 12.93l16.77 7.5273c6.8203 3.1016 12.695 7.2031 17.504 12.309 4.8125 5.1055 8.5312 11.188 11.07 18.215 2.5391 7.1133 3.6016 14.199 3.1875 21.227-0.44141 7.1133-2.3633 14.051-5.7266 20.723l-24.207 47.734c22.23 32.117 39.32 65.77 51.246 100.87 12.871 37.902 19.777 77.633 20.637 119.12 0.29688 13.965-2.9805 27.07-9.3281 38.496-6.375 11.453-15.852 21.137-27.895 28.25-33.094 19.484-69.934 30.199-107.1 32.059-33.062 1.6523-66.449-3.6914-97.742-16-4.043 5.6094-8.5312 10.895-13.402 15.793-23.23 23.23-55.262 37.578-90.566 37.578-35.305 0-67.336-14.348-90.512-37.52-17.711-17.742-30.289-40.59-35.246-66.156-66.094-9.5352-124.72-42.156-167.41-89.387-46.316-51.305-72.027-117.63-72.027-187.3zm57.418 113.33h64.621c-12.367-30.938-19.777-64.059-21.461-98.242h-69.902c2.0977 35.219 11.512 68.457 26.746 98.242zm97.391 0h249.65c6.0508-13.371 11.039-27.246 14.879-41.477 4.9609-18.332 8.0312-37.312 9.0938-56.738h-297.59c1.8906 34.48 10.184 67.719 23.969 98.242zm288.44 37.402c4.3984 3.3945 8.5625 7.0273 12.457 10.953 23.23 23.23 37.578 55.262 37.578 90.566 0 17.004-3.3359 33.238-9.3594 48.09 26.215 9.7422 53.992 13.934 81.562 12.547 32.355-1.625 64.441-10.953 93.285-27.926 7.3203-4.3086 13.02-10.125 16.797-16.914 3.8086-6.8203 5.7578-14.762 5.5781-23.293-0.82812-38.258-7.2031-74.953-19.098-110.05-10.773-31.762-26.125-62.168-45.961-91.273-19.809 6.2891-40.355 9.4453-60.898 9.4453-20.547 0-41.094-3.1602-60.898-9.4453-22.406 32.828-40 69.078-51.039 107.27zm-145.8-7.1719h-126.67c18.156 29.668 41.918 55.91 70.289 77.074 5.7578-22.613 17.562-42.863 33.562-58.895 6.8789-6.8789 14.555-12.988 22.848-18.184zm-161.36 0h-60.426c5.8164 8.2344 12.074 16.09 18.805 23.559 32.766 36.281 76.039 62.906 125.02 75.039-33.27-25.562-60.664-57.594-80.793-93.785l-2.5977-4.7812zm-60.398-287.11h60.426c2.0664-3.8359 4.1914-7.6445 6.4062-11.426 19.691-33.445 45.758-63.113 76.934-87.082-44.695 11.07-84.633 34.184-116.16 65.742-10.094 10.094-19.336 21.078-27.602 32.797zm95.082 0h217.71c-24.441-40.031-59.129-73.77-101.49-97.238-2.3633-1.3008-4.8711-1.9766-7.3789-1.9766-2.5078 0-5.0195 0.64844-7.3789 1.9766-42.363 23.438-77.047 57.211-101.49 97.238zm252.37 0h60.488c-19.336-27.453-44.102-50.832-72.68-68.547-21.699-13.461-45.668-23.676-71.203-29.992 31.23 24 57.27 53.668 76.992 87.141 2.2148 3.75 4.3398 7.5586 6.4062 11.426zm71.055 30.23h-56.973c4.8398 12.105 8.9141 24.531 12.191 37.227 1.7422-2.7461 3.6914-5.2539 5.875-7.5859 4.8125-5.1367 10.688-9.2383 17.504-12.309l16.77-7.5586c1.2383-3.3672 2.7734-6.6133 4.6328-9.8008zm-89.711 0h-249.68c-13.785 30.496-22.082 63.734-23.969 98.242h297.59c-1.8906-34.48-10.184-67.719-23.969-98.242zm-282.42 0h-64.621c-15.23 29.785-24.621 63.023-26.746 98.242h69.902c1.6836-34.156 9.0938-67.305 21.461-98.242zm366.55 105.62c0.32422 0.5625 0.64844 1.1797 0.91406 1.7695l9.7695 19.277c18.094 6.1992 36.988 9.3281 55.883 9.3281 18.895 0 37.816-3.1289 55.91-9.3867l25.594-50.449c1.5039-3.0117 2.3633-5.9922 2.5391-8.8867 0.17578-2.9805-0.29687-6.082-1.3867-9.1797-1.1211-3.0703-2.7148-5.668-4.7227-7.793-2.0977-2.2148-4.7539-4.0742-7.8828-5.4609l-2.4219-1.0938c-0.79688 3.3672-1.8906 6.7305-3.3047 10.035l-14.73 34.922c-3.2188 7.6445-12.043 11.246-19.719 8.0312-7.6445-3.2188-11.246-12.043-8.0312-19.719l14.73-34.922c2.0664-4.8984 2.8633-9.8906 2.4219-14.699-0.44141-4.9609-2.3906-9.7695-5.1367-13.902-2.9219-4.3984-6.6133-7.8242-10.863-10.094-4.1914-2.2422-9.0625-3.4258-14.406-3.4258h-17.211c-5.3438 0-10.242 1.1797-14.406 3.4258-4.2227 2.2734-7.9414 5.6992-10.863 10.094-2.8633 4.3086-4.6055 8.8555-5.1367 13.902-0.44141 4.8125 0.35547 9.8008 2.4219 14.699l14.73 34.922c3.2188 7.6445-0.35547 16.5-8.0312 19.719-7.6445 3.2188-16.5-0.35547-19.719-8.0312l-14.73-34.922c-1.3867-3.3047-2.4805-6.6719-3.2773-10.035l-2.3633 1.0625c-3.1875 1.418-5.8438 3.2461-7.9414 5.4609-2.0078 2.125-3.6016 4.7539-4.6953 7.8242-1.1211 3.1016-1.5938 6.1992-1.418 9.1797 0.17578 2.9219 1.0352 5.9023 2.5391 8.8867l14.938 29.43zm-54.168 190.73c-17.684-17.684-42.184-28.637-69.227-28.637-27.039 0-51.543 10.953-69.227 28.637s-28.637 42.184-28.637 69.227c0 27.039 10.953 51.543 28.637 69.227s42.184 28.637 69.227 28.637c27.039 0 51.543-10.953 69.227-28.637 17.684-17.684 28.637-42.184 28.637-69.227 0-27.039-10.953-51.543-28.637-69.227zm-84.336-5.9648c0-8.3555 6.7617-15.113 15.113-15.113 8.3555 0 15.113 6.7617 15.113 15.113v0.62109c5.875 2.0664 11.16 5.3438 15.527 9.4453 8.1484 7.6445 13.195 18.301 13.195 30.082 0 8.3555-6.7617 15.113-15.113 15.113-8.3555 0-15.113-6.7617-15.113-15.113 0-3.1289-1.3867-6.0234-3.6328-8.1172-2.4805-2.332-6.0234-3.7773-10.008-3.7773-3.9844 0-7.5273 1.4453-10.008 3.7773-2.2422 2.0977-3.6328 4.9883-3.6328 8.1172 0 9.1523 10.715 15.617 21.43 22.109 18.008 10.895 36.074 21.785 36.074 47.941 0 11.777-5.0469 22.438-13.195 30.082-4.3672 4.1328-9.6836 7.3789-15.527 9.4453v0.62109c0 8.3555-6.7617 15.113-15.113 15.113-8.3555 0-15.113-6.7617-15.113-15.113v-0.62109c-5.875-2.0664-11.16-5.3438-15.559-9.4766-8.1484-7.6445-13.195-18.301-13.195-30.082 0-8.3555 6.7617-15.113 15.113-15.113 8.3555 0 15.113 6.7617 15.113 15.113 0 3.1289 1.3867 6.0234 3.6328 8.1172 2.4805 2.332 6.0234 3.7773 10.008 3.7773s7.5273-1.4453 10.008-3.7773c2.2422-2.0977 3.6328-4.9883 3.6328-8.1172 0-9.1523-10.715-15.617-21.43-22.082-18.035-10.895-36.074-21.785-36.074-47.941 0-11.777 5.0469-22.438 13.195-30.082 4.3984-4.1328 9.6836-7.3789 15.559-9.4766v-0.62109z"/>
</svg>
