<?xml version="1.0" encoding="UTF-8"?>
<svg width="1200pt" height="1200pt" version="1.1" viewBox="0 0 1200 1200" xmlns="http://www.w3.org/2000/svg">
 <path d="m1200 600c0 214.36-114.36 412.44-300 519.62-185.64 107.18-414.36 107.18-600 0-185.64-107.18-300-305.26-300-519.62s114.36-412.44 300-519.62c185.64-107.18 414.36-107.18 600 0 185.64 107.18 300 305.26 300 519.62z" fill="#a8aaad"/>
 <path d="m590.43 516.75c6.375 6.375 12.871 12.871 16.531 23.734 0.58984 2.0078 1.1797 4.0156 1.5352 6.0234 5.4336-3.8984 11.102-8.8555 16.293-15.352 7.793-10.035 11.809-20.309 13.934-28.695-12.043-5.4336-25.152-8.6211-38.73-8.6211-8.6211 0-16.887 1.3008-25.031 3.543 0 0 0.03125 0.089843 0.11719 0.23438 4.9609 8.7383 10.273 14.051 15.352 19.129z"/>
 <path d="m734.61 619.36c0 2.832 0.35547 5.668 0.35547 8.6211 0 17.238-2.4805 33.77-6.8477 49.238 14.406-2.3633 25.387-14.762 25.387-29.875 0-12.637-7.793-23.5-18.895-27.984z"/>
 <path d="m465.39 619.36c-11.102 4.6055-18.895 15.469-18.895 27.984 0 15.113 10.98 27.512 25.387 29.875-4.3672-15.469-6.8477-32-6.8477-49.238 0-2.9531 0.23438-5.7852 0.35547-8.6211z"/>
 <path d="m659.75 514.98c-3.1875 9.4453-8.1484 20.191-16.414 30.699-13.816 17.594-30.348 26.688-42.035 31.172-4.4883 2.5977-10.273 4.4883-16.648 4.4883-3.4258 0-6.9648-0.47266-10.508-1.8906-12.281-4.4883-20.664-16.648-21.02-30.23-0.11719-6.4961 5.0781-11.926 11.691-12.043 6.6133 0 11.809 5.0781 11.926 11.57 0 4.0156 2.3633 7.4375 5.5508 8.6211 1.0625 0.35547 2.125 0.35547 3.1875 0.35547 0.23438-3.543 0-6.8477-0.94531-9.8008-1.8906-5.5508-5.4336-9.0938-10.746-14.406-5.668-5.668-12.754-12.754-19.246-24.324-0.47266-0.94531-0.82812-1.8906-1.3008-2.7148-38.023 21.254-64.59 67.66-64.59 121.5 0 73.918 49.949 134.02 111.35 134.02s111.35-60.102 111.35-134.02c0-47.469-20.664-89.152-51.602-113zm-146.07 98.008c0-6.4961 5.1953-11.809 11.809-11.809 6.6133 0 11.809 5.3125 11.809 11.809 0 6.0234 4.8398 10.98 10.863 10.98 6.0234 0 10.863-4.9609 10.863-10.98 0-6.4961 5.3125-11.809 11.809-11.809 6.4961 0 11.809 5.3125 11.809 11.809 0 19.129-15.469 34.598-34.48 34.598-19.012 0-34.48-15.469-34.48-34.598zm86.316 133.79c-31.527 0-57.152-25.742-57.152-57.27 0-6.4961 5.1953-11.809 11.809-11.809s11.809 5.3125 11.809 11.809c0 18.539 14.996 33.652 33.535 33.652s33.535-15.113 33.535-33.652c0-6.4961 5.3125-11.809 11.809-11.809s11.809 5.3125 11.809 11.809c0 31.527-25.625 57.27-57.152 57.27zm86.316-133.79c0 19.129-15.469 34.598-34.48 34.598-19.012 0-34.48-15.469-34.48-34.598 0-6.4961 5.3125-11.809 11.809-11.809 6.4961 0 11.809 5.3125 11.809 11.809 0 6.0234 4.8398 10.98 10.863 10.98 6.0234 0 10.863-4.9609 10.863-10.98 0-6.4961 5.3125-11.809 11.809-11.809 6.4961 0 11.809 5.3125 11.809 11.809z"/>
 <path d="m914.33 565.17-75.691-59.867-1.7695-1.418-214.91-170.16c-12.871-10.273-31.055-10.273-43.926 0l-214.91 170.16-1.7695 1.418-75.691 59.867c-5.0781 4.0156-6.0234 11.453-1.8906 16.531 4.0156 5.1953 11.453 6.0234 16.531 2.0078l57.625-45.578v306.89c0 19.484 15.941 35.426 35.426 35.426h413.29c19.484 0 35.426-15.941 35.426-35.426v-306.89l57.625 45.578c2.125 1.6523 4.7227 2.4805 7.3203 2.4805 3.4258 0 6.9648-1.5352 9.2109-4.4883 4.1328-5.0781 3.1875-12.516-1.8906-16.531zm-191.17 136.15c-1.1797 0-2.4805 0-3.6602-0.23437-22.672 50.184-67.66 84.551-119.49 84.551-51.832 0-96.82-34.363-119.49-84.551-1.1797 0.11719-2.4805 0.23437-3.6602 0.23437-29.758 0-53.961-24.207-53.961-53.961 0-26.688 19.719-48.887 45.344-53.02 9.8008-52.898 42.508-95.887 85.371-114.3 0.47266-0.11719 0.70703-0.47266 1.1797-0.70703 0.35547-0.11719 0.58984 0 0.82813-0.11719 13.934-5.668 28.812-8.9727 44.398-8.9727 64.59 0 118.55 53.254 131.78 124.1 25.625 4.1328 45.344 26.332 45.344 53.02 0 29.758-24.207 53.961-53.961 53.961z"/>
</svg>
