<?xml version="1.0" encoding="UTF-8"?>
<svg width="1200pt" height="1200pt" version="1.1" viewBox="0 0 1200 1200" xmlns="http://www.w3.org/2000/svg">
 <path d="m1200 600c0 214.36-114.36 412.44-300 519.62-185.64 107.18-414.36 107.18-600 0-185.64-107.18-300-305.26-300-519.62s114.36-412.44 300-519.62c185.64-107.18 414.36-107.18 600 0 185.64 107.18 300 305.26 300 519.62z" fill="#a8aaad"/>
 <path d="m298 637.08v-95.941l95.68 29.434v0.046876l209.61 64.508 209.61-64.508 0.003907-0.046876 137.12-42.164c4.7305-1.3828 7.9922-5.7109 8.0117-10.637 0.023437-4.9297-3.1953-9.2891-7.9141-10.711l-343.5-105.74c-2.1484-0.66797-4.4492-0.66797-6.5938 0l-343.42 105.67c-4.7383 1.3828-8 5.7148-8.0195 10.652-0.015625 4.9336 3.2148 9.2891 7.9414 10.707l19.09 5.8867v102.84c-7.4414 1.7578-14.328 5.3516-20.023 10.453-8.6094 7.4766-13.551 18.32-13.551 29.719 0 11.402 4.9414 22.246 13.551 29.723 5.6992 5.0977 12.586 8.6914 20.031 10.441v42.164c-0.082032 3.0195 1.0625 5.9414 3.168 8.1055 2.1094 2.1641 5 3.3828 8.0195 3.3828 3.0195 0 5.9141-1.2188 8.0195-3.3828 2.1094-2.1641 3.25-5.0859 3.1719-8.1055v-42.164c7.4414-1.7539 14.324-5.3438 20.02-10.441 8.6094-7.4805 13.551-18.32 13.551-29.723 0-11.398-4.9414-22.242-13.551-29.719-5.6953-5.1016-12.578-8.6953-20.02-10.453zm514.9-43.121v145.38c0.003906 3.9023-2.0352 7.5273-5.3789 9.5469-27.051 17.539-57.035 30.082-88.52 37.02-37.906 9.0078-76.75 13.469-115.71 13.285-38.961 0.1875-77.809-4.2656-115.72-13.262-31.723-6.9805-61.914-19.672-89.094-37.457-2.9883-2.082-4.7695-5.4922-4.7734-9.1328v-145.38l22.379 6.8828 183.9 56.605h-0.003907c2.1602 0.66797 4.4688 0.66797 6.6289 0l183.96-56.621z" fill-rule="evenodd"/>
</svg>
