<?xml version="1.0" encoding="UTF-8"?>
<svg width="1200pt" height="1200pt" version="1.1" viewBox="0 0 1200 1200" xmlns="http://www.w3.org/2000/svg">
 <path class="bg-circle" d="m1200 600c0 214.36-114.36 412.44-300 519.62-185.64 107.18-414.36 107.18-600 0-185.64-107.18-300-305.26-300-519.62s114.36-412.44 300-519.62c185.64-107.18 414.36-107.18 600 0 185.64 107.18 300 305.26 300 519.62z" fill="#a8aaad"/>
 <path class="icon" d="m600 259.93c-187.69 0-340.07 152.38-340.07 340.07s152.38 340.07 340.07 340.07 340.07-152.38 340.07-340.07-152.38-340.07-340.07-340.07zm0 60.176c154.48 0 279.9 125.41 279.9 279.89s-125.42 279.89-279.9 279.89c-154.48 0-279.89-125.41-279.89-279.89s125.42-279.89 279.89-279.89z" fill-rule="evenodd"/>
 <path d="m550.31 583.08c-5.8711 67.449-21.34 132.86-45.457 196.46-5.8867 15.531 1.9414 32.91 17.465 38.797 15.531 5.8867 32.91-1.9336 38.797-17.465 17.07-45.027 30.121-90.891 38.883-137.65 8.7578 46.762 21.809 92.629 38.883 137.65 5.8867 15.531 23.27 23.352 38.797 17.465 15.531-5.8867 23.352-23.27 17.465-38.797-24.102-63.562-39.562-128.95-45.441-196.34 36.039-1.7695 72.094-5.5469 108.15-11.402 16.391-2.668 27.539-18.137 24.871-34.527-2.6602-16.383-18.129-27.531-34.52-24.871-98.863 16.066-197.72 15.434-296.58-0.03125-16.406-2.5625-31.809 8.6758-34.379 25.082-2.5625 16.406 8.6758 31.809 25.082 34.371 35.988 5.6289 71.98 9.4102 107.98 11.254z" fill-rule="evenodd"/>
 <path d="m654.31 444.88c0 29.992-24.316 54.305-54.309 54.305s-54.305-24.312-54.305-54.305c0-29.992 24.312-54.305 54.305-54.305s54.309 24.312 54.309 54.305z" fill-rule="evenodd"/>
</svg>
