<?xml version="1.0" encoding="UTF-8"?>
<svg width="1200pt" height="1200pt" version="1.1" viewBox="0 0 1200 1200" xmlns="http://www.w3.org/2000/svg">
 <path d="m1200 600c0 214.36-114.36 412.44-300 519.62-185.64 107.18-414.36 107.18-600 0-185.64-107.18-300-305.26-300-519.62s114.36-412.44 300-519.62c185.64-107.18 414.36-107.18 600 0 185.64 107.18 300 305.26 300 519.62z" fill="#a8aaad"/>
 <path d="m808.89 272.74h-472.53v654.52h472.53c30.199 0 54.762-24.59 54.762-54.762v-544.97c0-30.199-24.562-54.762-54.762-54.762zm-447.08 25.477h49.18l0.03125 603.57h-49.18zm476.39 574.25c0 16.176-13.168 29.312-29.312 29.312h-372.42v-603.57h103.38v117.23l53.227-37.934 53.227 37.934 0.03125-117.23h162.57c16.176 0 29.312 13.168 29.312 29.312z"/>
 <path d="m504.56 659.1h264.53v25.445h-264.53z"/>
 <path d="m504.56 734.96h264.53v25.445h-264.53z"/>
</svg>
